<svg viewBox="0 0 330 200" xmlns="http://www.w3.org/2000/svg"><g><g><g><g><g><line x1="41.149001121520996" y1="90.86492009985774" x2="36.149001121520996" y2="90.86492009985774" style="visibility: inherit;" fill="rgb(0, 0, 0)" stroke="rgb(204, 204, 204)" stroke-width="1px"></line></g><g transform="translate(31.149001121520996, 0)"><text style="text-anchor: end; visibility: inherit; font-family: Roboto, sans-serif; font-size: 12px; font-weight: 200;" x="0" y="90.86492009985774" dx="0em" dy="0.3em" fill="rgb(33, 33, 33)" stroke="none" stroke-width="1px">0.5</text></g><line x1="41.149001121520996" y1="0" x2="41.149001121520996" y2="176.89999961853027" fill="rgb(0, 0, 0)" stroke="rgb(204, 204, 204)" stroke-width="1px"></line></g></g><g transform="translate(41, 0)" clip-path="url(#clip_0)"><clipPath id="clip_0"><rect width="288" height="176"></rect></clipPath><g><g><g><line x1="0" y1="0" x2="0" y2="176.89999961853027" fill="rgb(0, 0, 0)" stroke="rgb(66, 66, 66)" stroke-width="1px" opacity="0.25"></line><line x1="36.106374859809875" y1="0" x2="36.106374859809875" y2="176.89999961853027" fill="rgb(0, 0, 0)" stroke="rgb(66, 66, 66)" stroke-width="1px" opacity="0.25"></line><line x1="72.21274971961975" y1="0" x2="72.21274971961975" y2="176.89999961853027" fill="rgb(0, 0, 0)" stroke="rgb(66, 66, 66)" stroke-width="1px" opacity="0.25"></line><line x1="108.31912457942963" y1="0" x2="108.31912457942963" y2="176.89999961853027" fill="rgb(0, 0, 0)" stroke="rgb(66, 66, 66)" stroke-width="1px" opacity="0.25"></line><line x1="144.4254994392395" y1="0" x2="144.4254994392395" y2="176.89999961853027" fill="rgb(0, 0, 0)" stroke="rgb(66, 66, 66)" stroke-width="1px" opacity="0.25"></line><line x1="180.53187429904938" y1="0" x2="180.53187429904938" y2="176.89999961853027" fill="rgb(0, 0, 0)" stroke="rgb(66, 66, 66)" stroke-width="1px" opacity="0.25"></line><line x1="216.63824915885925" y1="0" x2="216.63824915885925" y2="176.89999961853027" fill="rgb(0, 0, 0)" stroke="rgb(66, 66, 66)" stroke-width="1px" opacity="0.25"></line><line x1="252.74462401866913" y1="0" x2="252.74462401866913" y2="176.89999961853027" fill="rgb(0, 0, 0)" stroke="rgb(66, 66, 66)" stroke-width="1px" opacity="0.25"></line><line x1="288.850998878479" y1="0" x2="288.850998878479" y2="176.89999961853027" fill="rgb(0, 0, 0)" stroke="rgb(66, 66, 66)" stroke-width="1px" opacity="0.25"></line></g><g><line x1="0" y1="90.86492009985774" x2="288.850998878479" y2="90.86492009985774" fill="rgb(0, 0, 0)" stroke="rgb(66, 66, 66)" stroke-width="1px" opacity="0.25"></line></g></g></g><g><g><line x1="36.106374859809875" y1="0" x2="36.106374859809875" y2="176.89999961853027" fill="rgb(0, 0, 0)" stroke="rgb(153, 153, 153)" stroke-width="1.5px"></line></g></g><g><g><g><g><g><path style="fill: none;" stroke="rgb(255, 112, 67)" stroke-width="2px" d="M46.93828731775284,-29.480719779648364L48.74360606074333,25.271428516932982L50.548924803733826,61.666649255610984L52.35424354672432,85.90057856886955L54.15956228971481,102.31204266899798L55.96488103270531,113.70966056798103L57.7701997756958,121.77830393828232L59.575518518686295,127.5805747304707L61.38083726167679,131.7813720715263L63.18615600466728,134.86257089051236L64.99147474765778,136.98003093768313L66.79679349064827,138.36328154152662L68.60211223363876,139.35710759464286L70.40743097662926,140.0798778417623L72.21274971961975,140.69539477471906L74.01806846261024,141.52820420014604L75.82338720560074,142.36446792148357L77.62870594859123,143.0631952955131L79.43402469158173,143.57540969319098L81.23934343457222,143.69985056362154L83.04466217756271,143.29732277635352L84.84998092055321,142.79124820655986L86.6552996635437,143.25009631908193L88.4606184065342,143.87260297740923L90.26593714952469,143.0073742165092L92.07125589251518,143.30384130614894L93.87657463550568,144.66928932052136L95.68189337849617,146.09744519463894L97.48721212148666,146.87505312348097L99.29253086447716,147.58920587183638L101.09784960746765,148.22991174858626L102.90316835045815,148.42745069667635L104.70848709344864,148.28456920918737L106.51380583643913,146.90210939697383L108.31912457942963,143.9892346858873L110.12444332242012,135.6658545270919L111.92976206541061,130.71353968574076L113.73508080840111,131.4600202062664L115.5403995513916,136.16444616584343L117.3457182943821,138.30324449595062L119.15103703737259,140.515930060128L120.95635578036308,143.1706764816383L122.76167452335358,145.2415791352612L124.56699326634407,147.18417645096216L126.37231200933456,148.40729739486144L128.17763075232506,149.3675948336212L129.98294949531555,149.81975488200914L131.78826823830605,149.01964446729863L133.59358698129654,147.79179449085674L135.39890572428703,146.34806932138721L137.20422446727753,144.70129050021876L139.00954321026802,141.7763132614442L140.81486195325851,136.53848321675014L142.620180696249,134.00349022127975L144.4254994392395,132.53832169037298L146.23081818223,135.2300567103756L148.0361369252205,135.54910354450132L149.84145566821098,138.5894776207214L151.64677441120148,142.35660121851265L153.45209315419197,145.18951169317083L155.25741189718246,147.2342912592659L157.06273064017296,148.6861855515128L158.86804938316345,149.7551912623562L160.67336812615395,150.4714506624028L162.47868686914444,150.88381771431983L164.28400561213493,150.83961976695184L166.08932435512543,149.05431318458957L167.89464309811592,145.70732500583446L169.69996184110641,140.46839788842237L171.5052805840969,134.96338642613233L173.3105993270874,132.83302564619586L175.1159180700779,135.75343666707573L176.9212368130684,139.15582638026294L178.72655555605888,142.6772680807523L180.53187429904938,145.80578604357845L182.33719304203987,147.80429666794305L184.14251178503036,149.32408707691553L185.94783052802086,150.3078450103057L187.75314927101135,150.83663331016643L189.55846801400185,151.1046485811372L191.36378675699234,150.9801144246061L193.16910549998283,149.6153356682618L194.97442424297333,147.0913658036326L196.77974298596382,141.32566395367462L198.58506172895432,135.17248155639882L200.3903804719448,132.9875216024052L202.1956992149353,133.32602876884093L204.0010179579258,136.53631516371632L205.8063367009163,139.81514475311675L207.61165544390678,143.5787672234504L209.41697418689728,146.66163382386588L211.22229292988777,148.80189718980307L213.02761167287827,150.13282268958952L214.83293041586876,151.04468869269496L216.63824915885925,151.62857110159734L218.44356790184975,152.0008208392669L220.24888664484024,151.98350762810006L222.05420538783073,151.4141853172757L223.85952413082123,149.72084737704256L225.66484287381172,146.15572247155515L227.47016161680222,143.74543937142857L229.2754803597927,141.62669154682976L231.0807991027832,139.81978384078715L232.8861178457737,141.17445780636976L234.6914365887642,142.69876621055403L236.49675533175468,145.15704453360067L238.30207407474518,147.55729914842112L240.10739281773567,149.22692912214265L241.91271156072617,150.2131917608448L243.71803030371666,151.04528196447566L245.52334904670715,151.5561331478738L247.32866778969765,151.88477325721033L249.13398653268814,151.8582207385519L250.93930527567863,150.92792172326895L252.74462401866913,147.8669729410814L254.54994276165962,143.37856908106895L256.3552615046501,142.03959706564524L258.1605802476406,138.8619144598599L259.9658989906311,138.7229045472473L261.7712177336216,141.45604407836012L263.5765364766121,144.18355969174027L265.3818552196026,146.80523101997724L267.1871739625931,148.9903948609054L268.9924927055836,150.4316247552211L270.79781144857407,151.35246444904044L272.60313019156456,151.93595114255675L274.40844893455505,152.28987409858942L276.21376767754555,152.40946202962223" fill="none"></path></g></g></g></g><g opacity="0.2"><g><g><g><path style="fill: none;" stroke="rgb(255, 112, 67)" stroke-width="2px" d="M39.71701234579086,-76.20248129828761L41.52233108878136,47.54291587756709L43.32764983177185,90.47470411692156L45.132968574762344,99.74895117711026L46.93828731775284,109.43279548389195L48.74360606074333,115.56541723448123L50.548924803733826,119.84047710598513L52.35424354672432,123.84256632388033L54.15956228971481,127.66729661195728L55.96488103270531,131.1684783847619L57.7701997756958,134.0664734344891L59.575518518686295,136.38159135091263L61.38083726167679,138.13458974653082L63.18615600466728,139.5127764685381L64.99147474765778,140.16973970676165L66.79679349064827,140.44394848882615L68.60211223363876,140.8508634366837L70.40743097662926,141.16564188615618L72.21274971961975,141.61985074859348L74.01806846261024,142.77961513352398L75.82338720560074,143.6210897304629L77.62870594859123,144.11284329760025L79.43402469158173,144.34456842535386L81.23934343457222,143.88656092019139L83.04466217756271,142.6940502883091L84.84998092055321,142.03295597409686L86.6552996635437,143.93904269389904L88.4606184065342,144.80760477961636L90.26593714952469,141.71192291998574L92.07125589251518,143.74882340828984L93.87657463550568,146.72344772174122L95.68189337849617,148.24622887203418L97.48721212148666,148.04340392311016L99.29253086447716,148.66207014379373L101.09784960746765,149.1922864595723L102.90316835045815,148.72388407791155L104.70848709344864,148.07031230446418L106.51380583643913,144.8345180628532L108.31912457942963,139.64690306286334L110.12444332242012,123.39842352041295L111.92976206541061,123.36269701126812L113.73508080840111,132.5815276763122L115.5403995513916,143.29269408656123L117.3457182943821,141.52615608887328L119.15103703737259,143.85070936000113L120.95635578036308,147.17549233053683L122.76167452335358,148.36172570594445L124.56699326634407,150.11020532115847L126.37231200933456,150.2467808245175L128.17763075232506,150.8109992463629L129.98294949531555,150.49865005080832L131.78826823830605,147.8215242686943L133.59358698129654,145.95483182216864L135.39890572428703,144.189131513652L137.20422446727753,142.23977034964952L139.00954321026802,137.41605176216143L140.81486195325851,128.76852125888107L142.620180696249,130.2214524414664L144.4254994392395,130.34741751518882L146.23081818223,139.2909942952852L148.0361369252205,136.0279998559508L149.84145566821098,143.17983388888652L151.64677441120148,148.0531046563064L153.45209315419197,149.46473276225302L155.25741189718246,150.31490662027406L157.06273064017296,150.8707968793796L158.86804938316345,151.36236666745037L160.67336812615395,151.54748459952623L162.47868686914444,151.5029131074409L164.28400561213493,150.7733290981158L166.08932435512543,146.38651435953872L167.89464309811592,140.72242948090226L169.69996184110641,132.69682646529253L171.5052805840969,126.80167431747553L173.3105993270874,129.65194153502347L175.1159180700779,140.1615359354418L176.9212368130684,144.29675494357855L178.72655555605888,147.9994446774586L180.53187429904938,150.53011715868445L182.33719304203987,150.81490563239933L184.14251178503036,151.61119170753102L185.94783052802086,151.78658663981605L187.75314927101135,151.6307118677346L189.55846801400185,151.50690155631827L191.36378675699234,150.7933628178748L193.16910549998283,147.57411115796893L194.97442424297333,143.32568574806527L196.77974298596382,132.7821434299236L198.58506172895432,126.06222807249176L200.3903804719448,129.7252873895447L202.1956992149353,133.8341565843448L204.0010179579258,141.3849761503296L205.8063367009163,144.76806019279036L207.61165544390678,149.26993347570672L209.41697418689728,151.31657052556747L211.22229292988777,152.02702655088495L213.02761167287827,152.13489814626726L214.83293041586876,152.4151547897279L216.63824915885925,152.5054874173589L218.44356790184975,152.55963937162295L220.24888664484024,151.95753877077613L222.05420538783073,150.56123801267756L223.85952413082123,147.18998350783167L225.66484287381172,140.84839182484924L227.47016161680222,140.1485088865093L229.2754803597927,138.46287005835023L231.0807991027832,137.11983019350683L232.8861178457737,143.21236105237423L234.6914365887642,144.99269208676478L236.49675533175468,148.86391444985645L238.30207407474518,151.1762235873629L240.10739281773567,151.74033119905553L241.91271156072617,151.69570629593423L243.71803030371666,152.29563770345064L245.52334904670715,152.3232462336119L247.32866778969765,152.3780793921516L249.13398653268814,151.8183942171855L250.93930527567863,149.53523759545052L252.74462401866913,143.30533303360738L254.54994276165962,136.70979660169235L256.3552615046501,140.0368603495341L258.1605802476406,134.12748033606252L259.9658989906311,138.514451512367L261.7712177336216,145.5798141195345L263.5765364766121,148.29879463066953L265.3818552196026,150.75987053601204L267.1871739625931,152.2835012192079L268.9924927055836,152.6001402370023L270.79781144857407,152.73644388995007L272.60313019156456,152.81227240363924L274.40844893455505,152.8211598065877L276.21376767754555,152.58888971572443" fill="none"></path></g></g></g></g></g></g><g transform="translate(41, 176)" clip-path="url(#clip_1)"><clipPath id="clip_1"><rect width="288" height="23"></rect></clipPath><g><g><line x1="0" y1="0" x2="0" y2="5" style="visibility: inherit;" fill="rgb(0, 0, 0)" stroke="rgb(204, 204, 204)" stroke-width="1px"></line><line x1="36.106374859809875" y1="0" x2="36.106374859809875" y2="5" style="visibility: inherit;" fill="rgb(0, 0, 0)" stroke="rgb(204, 204, 204)" stroke-width="1px"></line><line x1="72.21274971961975" y1="0" x2="72.21274971961975" y2="5" style="visibility: inherit;" fill="rgb(0, 0, 0)" stroke="rgb(204, 204, 204)" stroke-width="1px"></line><line x1="108.31912457942963" y1="0" x2="108.31912457942963" y2="5" style="visibility: inherit;" fill="rgb(0, 0, 0)" stroke="rgb(204, 204, 204)" stroke-width="1px"></line><line x1="144.4254994392395" y1="0" x2="144.4254994392395" y2="5" style="visibility: inherit;" fill="rgb(0, 0, 0)" stroke="rgb(204, 204, 204)" stroke-width="1px"></line><line x1="180.53187429904938" y1="0" x2="180.53187429904938" y2="5" style="visibility: inherit;" fill="rgb(0, 0, 0)" stroke="rgb(204, 204, 204)" stroke-width="1px"></line><line x1="216.63824915885925" y1="0" x2="216.63824915885925" y2="5" style="visibility: inherit;" fill="rgb(0, 0, 0)" stroke="rgb(204, 204, 204)" stroke-width="1px"></line><line x1="252.74462401866913" y1="0" x2="252.74462401866913" y2="5" style="visibility: inherit;" fill="rgb(0, 0, 0)" stroke="rgb(204, 204, 204)" stroke-width="1px"></line><line x1="288.850998878479" y1="0" x2="288.850998878479" y2="5" style="visibility: inherit;" fill="rgb(0, 0, 0)" stroke="rgb(204, 204, 204)" stroke-width="1px"></line></g><g transform="translate(0, 8)"><text style="text-anchor: middle; visibility: hidden; font-family: Roboto, sans-serif; font-size: 12px; font-weight: 200;" x="0" y="0" dx="0em" dy="0.95em" fill="rgb(33, 33, 33)" stroke="none" stroke-width="1px">-20</text><text style="text-anchor: middle; visibility: inherit; font-family: Roboto, sans-serif; font-size: 12px; font-weight: 200;" x="36.106374859809875" y="0" dx="0em" dy="0.95em" fill="rgb(33, 33, 33)" stroke="none" stroke-width="1px">0</text><text style="text-anchor: middle; visibility: inherit; font-family: Roboto, sans-serif; font-size: 12px; font-weight: 200;" x="72.21274971961975" y="0" dx="0em" dy="0.95em" fill="rgb(33, 33, 33)" stroke="none" stroke-width="1px">20</text><text style="text-anchor: middle; visibility: inherit; font-family: Roboto, sans-serif; font-size: 12px; font-weight: 200;" x="108.31912457942963" y="0" dx="0em" dy="0.95em" fill="rgb(33, 33, 33)" stroke="none" stroke-width="1px">40</text><text style="text-anchor: middle; visibility: inherit; font-family: Roboto, sans-serif; font-size: 12px; font-weight: 200;" x="144.4254994392395" y="0" dx="0em" dy="0.95em" fill="rgb(33, 33, 33)" stroke="none" stroke-width="1px">60</text><text style="text-anchor: middle; visibility: inherit; font-family: Roboto, sans-serif; font-size: 12px; font-weight: 200;" x="180.53187429904938" y="0" dx="0em" dy="0.95em" fill="rgb(33, 33, 33)" stroke="none" stroke-width="1px">80</text><text style="text-anchor: middle; visibility: inherit; font-family: Roboto, sans-serif; font-size: 12px; font-weight: 200;" x="216.63824915885925" y="0" dx="0em" dy="0.95em" fill="rgb(33, 33, 33)" stroke="none" stroke-width="1px">100</text><text style="text-anchor: middle; visibility: inherit; font-family: Roboto, sans-serif; font-size: 12px; font-weight: 200;" x="252.74462401866913" y="0" dx="0em" dy="0.95em" fill="rgb(33, 33, 33)" stroke="none" stroke-width="1px">120</text><text style="text-anchor: middle; visibility: hidden; font-family: Roboto, sans-serif; font-size: 12px; font-weight: 200;" x="288.850998878479" y="0" dx="0em" dy="0.95em" fill="rgb(33, 33, 33)" stroke="none" stroke-width="1px">140</text></g><line x1="0" y1="0" x2="288.850998878479" y2="0" fill="rgb(0, 0, 0)" stroke="rgb(204, 204, 204)" stroke-width="1px"></line></g></g></g></g></svg>