<svg viewBox="0 0 330 200" xmlns="http://www.w3.org/2000/svg"><g><g><g><g><g><line x1="51.53200149536133" y1="130.6775581097984" x2="46.53200149536133" y2="130.6775581097984" style="visibility: inherit;" fill="rgb(0, 0, 0)" stroke="rgb(204, 204, 204)" stroke-width="1px"></line><line x1="51.53200149536133" y1="103.25884708968889" x2="46.53200149536133" y2="103.25884708968889" style="visibility: inherit;" fill="rgb(0, 0, 0)" stroke="rgb(204, 204, 204)" stroke-width="1px"></line><line x1="51.53200149536133" y1="83.80496202661851" x2="46.53200149536133" y2="83.80496202661851" style="visibility: inherit;" fill="rgb(0, 0, 0)" stroke="rgb(204, 204, 204)" stroke-width="1px"></line><line x1="51.53200149536133" y1="68.71535646713559" x2="46.53200149536133" y2="68.71535646713559" style="visibility: inherit;" fill="rgb(0, 0, 0)" stroke="rgb(204, 204, 204)" stroke-width="1px"></line><line x1="51.53200149536133" y1="56.38625100650899" x2="46.53200149536133" y2="56.38625100650899" style="visibility: inherit;" fill="rgb(0, 0, 0)" stroke="rgb(204, 204, 204)" stroke-width="1px"></line><line x1="51.53200149536133" y1="45.962140869245275" x2="46.53200149536133" y2="45.962140869245275" style="visibility: inherit;" fill="rgb(0, 0, 0)" stroke="rgb(204, 204, 204)" stroke-width="1px"></line><line x1="51.53200149536133" y1="36.93236594343868" x2="46.53200149536133" y2="36.93236594343868" style="visibility: inherit;" fill="rgb(0, 0, 0)" stroke="rgb(204, 204, 204)" stroke-width="1px"></line><line x1="51.53200149536133" y1="28.9675399863994" x2="46.53200149536133" y2="28.9675399863994" style="visibility: inherit;" fill="rgb(0, 0, 0)" stroke="rgb(204, 204, 204)" stroke-width="1px"></line><line x1="51.53200149536133" y1="21.8427603839557" x2="46.53200149536133" y2="21.8427603839557" style="visibility: inherit;" fill="rgb(0, 0, 0)" stroke="rgb(204, 204, 204)" stroke-width="1px"></line></g><g transform="translate(41.53200149536133, 0)"><text style="text-anchor: end; visibility: inherit; font-family: Roboto, sans-serif; font-size: 12px; font-weight: 200;" x="0" y="130.6775581097984" dx="0em" dy="0.3em" fill="rgb(33, 33, 33)" stroke="none" stroke-width="1px">2e-3</text><text style="text-anchor: end; visibility: hidden; font-family: Roboto, sans-serif; font-size: 12px; font-weight: 200;" x="0" y="103.25884708968889" dx="0em" dy="0.3em" fill="rgb(33, 33, 33)" stroke="none" stroke-width="1px">3e-3</text><text style="text-anchor: end; visibility: hidden; font-family: Roboto, sans-serif; font-size: 12px; font-weight: 200;" x="0" y="83.80496202661851" dx="0em" dy="0.3em" fill="rgb(33, 33, 33)" stroke="none" stroke-width="1px">4e-3</text><text style="text-anchor: end; visibility: inherit; font-family: Roboto, sans-serif; font-size: 12px; font-weight: 200;" x="0" y="68.71535646713559" dx="0em" dy="0.3em" fill="rgb(33, 33, 33)" stroke="none" stroke-width="1px">5e-3</text><text style="text-anchor: end; visibility: hidden; font-family: Roboto, sans-serif; font-size: 12px; font-weight: 200;" x="0" y="56.38625100650899" dx="0em" dy="0.3em" fill="rgb(33, 33, 33)" stroke="none" stroke-width="1px">6e-3</text><text style="text-anchor: end; visibility: hidden; font-family: Roboto, sans-serif; font-size: 12px; font-weight: 200;" x="0" y="45.962140869245275" dx="0em" dy="0.3em" fill="rgb(33, 33, 33)" stroke="none" stroke-width="1px">7e-3</text><text style="text-anchor: end; visibility: inherit; font-family: Roboto, sans-serif; font-size: 12px; font-weight: 200;" x="0" y="36.93236594343868" dx="0em" dy="0.3em" fill="rgb(33, 33, 33)" stroke="none" stroke-width="1px">8e-3</text><text style="text-anchor: end; visibility: hidden; font-family: Roboto, sans-serif; font-size: 12px; font-weight: 200;" x="0" y="28.9675399863994" dx="0em" dy="0.3em" fill="rgb(33, 33, 33)" stroke="none" stroke-width="1px">9e-3</text><text style="text-anchor: end; visibility: hidden; font-family: Roboto, sans-serif; font-size: 12px; font-weight: 200;" x="0" y="21.8427603839557" dx="0em" dy="0.3em" fill="rgb(33, 33, 33)" stroke="none" stroke-width="1px">0.01</text></g><line x1="51.53200149536133" y1="0" x2="51.53200149536133" y2="176.89999961853027" fill="rgb(0, 0, 0)" stroke="rgb(204, 204, 204)" stroke-width="1px"></line></g></g><g transform="translate(51, 0)" clip-path="url(#clip_0)"><clipPath id="clip_0"><rect width="278" height="176"></rect></clipPath><g><g><g><line x1="0" y1="0" x2="0" y2="176.89999961853027" fill="rgb(0, 0, 0)" stroke="rgb(66, 66, 66)" stroke-width="1px" opacity="0.25"></line><line x1="34.808499813079834" y1="0" x2="34.808499813079834" y2="176.89999961853027" fill="rgb(0, 0, 0)" stroke="rgb(66, 66, 66)" stroke-width="1px" opacity="0.25"></line><line x1="69.61699962615967" y1="0" x2="69.61699962615967" y2="176.89999961853027" fill="rgb(0, 0, 0)" stroke="rgb(66, 66, 66)" stroke-width="1px" opacity="0.25"></line><line x1="104.4254994392395" y1="0" x2="104.4254994392395" y2="176.89999961853027" fill="rgb(0, 0, 0)" stroke="rgb(66, 66, 66)" stroke-width="1px" opacity="0.25"></line><line x1="139.23399925231934" y1="0" x2="139.23399925231934" y2="176.89999961853027" fill="rgb(0, 0, 0)" stroke="rgb(66, 66, 66)" stroke-width="1px" opacity="0.25"></line><line x1="174.04249906539917" y1="0" x2="174.04249906539917" y2="176.89999961853027" fill="rgb(0, 0, 0)" stroke="rgb(66, 66, 66)" stroke-width="1px" opacity="0.25"></line><line x1="208.850998878479" y1="0" x2="208.850998878479" y2="176.89999961853027" fill="rgb(0, 0, 0)" stroke="rgb(66, 66, 66)" stroke-width="1px" opacity="0.25"></line><line x1="243.65949869155884" y1="0" x2="243.65949869155884" y2="176.89999961853027" fill="rgb(0, 0, 0)" stroke="rgb(66, 66, 66)" stroke-width="1px" opacity="0.25"></line><line x1="278.4679985046387" y1="0" x2="278.4679985046387" y2="176.89999961853027" fill="rgb(0, 0, 0)" stroke="rgb(66, 66, 66)" stroke-width="1px" opacity="0.25"></line></g><g><line x1="0" y1="130.6775581097984" x2="278.4679985046387" y2="130.6775581097984" fill="rgb(0, 0, 0)" stroke="rgb(66, 66, 66)" stroke-width="1px" opacity="0.25"></line><line x1="0" y1="103.25884708968889" x2="278.4679985046387" y2="103.25884708968889" fill="rgb(0, 0, 0)" stroke="rgb(66, 66, 66)" stroke-width="1px" opacity="0.25"></line><line x1="0" y1="83.80496202661851" x2="278.4679985046387" y2="83.80496202661851" fill="rgb(0, 0, 0)" stroke="rgb(66, 66, 66)" stroke-width="1px" opacity="0.25"></line><line x1="0" y1="68.71535646713559" x2="278.4679985046387" y2="68.71535646713559" fill="rgb(0, 0, 0)" stroke="rgb(66, 66, 66)" stroke-width="1px" opacity="0.25"></line><line x1="0" y1="56.38625100650899" x2="278.4679985046387" y2="56.38625100650899" fill="rgb(0, 0, 0)" stroke="rgb(66, 66, 66)" stroke-width="1px" opacity="0.25"></line><line x1="0" y1="45.962140869245275" x2="278.4679985046387" y2="45.962140869245275" fill="rgb(0, 0, 0)" stroke="rgb(66, 66, 66)" stroke-width="1px" opacity="0.25"></line><line x1="0" y1="36.93236594343868" x2="278.4679985046387" y2="36.93236594343868" fill="rgb(0, 0, 0)" stroke="rgb(66, 66, 66)" stroke-width="1px" opacity="0.25"></line><line x1="0" y1="28.9675399863994" x2="278.4679985046387" y2="28.9675399863994" fill="rgb(0, 0, 0)" stroke="rgb(66, 66, 66)" stroke-width="1px" opacity="0.25"></line><line x1="0" y1="21.8427603839557" x2="278.4679985046387" y2="21.8427603839557" fill="rgb(0, 0, 0)" stroke="rgb(66, 66, 66)" stroke-width="1px" opacity="0.25"></line></g></g></g><g><g><line x1="34.808499813079834" y1="0" x2="34.808499813079834" y2="176.89999961853027" fill="rgb(0, 0, 0)" stroke="rgb(153, 153, 153)" stroke-width="1.5px"></line></g></g><g><g><g><g><g><path style="fill: none;" stroke="rgb(255, 112, 67)" stroke-width="2px" d="M34.808499813079834,177.55015098106483L35.156584811210635,168.65258272361746L35.33062731027603,162.94530012622974L35.50466980934143,157.90619112071252L36.026797306537624,148.68445431232882L36.374882304668425,140.3337799903248L36.548924803733826,134.33063473363381L36.72296730279922,129.52979128724448L37.24509479999543,122.6303252286408L37.41913729906082,117.5723275016771L37.59317979812622,113.53227882500936L37.94126479625702,108.97850761382018L38.11530729532242,105.33687761066064L38.28934979438782,102.23794244056421L38.63743479251862,98.52657000982317L38.81147729158401,95.48425958034223L39.33360478878021,91.13010700438939L39.507647287845614,87.83416606534034L39.68168978691101,85.1506736265432L39.85573228597641,82.8361961900651L40.02977478504181,80.75350958987697L40.20381728410721,78.82357598925553L40.3778597831726,77.00007151464814L40.55190228223801,75.25536827263413L40.725944781303404,73.57264329332997L41.0740297794342,71.30602519257455L41.248072278499606,69.36436551975038L41.422114777565,67.62404918236156L41.59615727663041,66.0136472560227L41.7701997756958,64.49131563561257L42.118284773826595,62.47497804916461L42.292327272892,60.75026077151126L42.9884972691536,57.637354936311645L43.16253976821899,55.33495080438065L43.3365822672844,53.50246795437469L43.51062476634979,51.94970845015175L43.684667265415186,50.56791640233645L43.858709764480594,49.29397124358718L44.03275226354599,48.09085165367556L44.20679476261139,46.93664919201909L44.38083726167679,45.81827493294428L44.72892225980758,44.302299700983205L45.251049757003784,42.164454149809565L45.42509225606918,40.51120802329409L45.599134755134585,39.14414756261226L45.77317725419998,37.949731716008436L46.12126225233078,36.483104736769604L46.29530475139618,35.246125434827796L46.469347250461574,34.14862829169866L46.64338974952698,33.137996462968694L46.991474747657776,31.82961914190283L47.16551724672318,30.708747371180245L47.51360224485397,29.361412147604728L47.86168724298477,27.89681049415812L48.20977224111557,26.379052319570185L48.383814740180966,25.164104249100617L48.55785723924637,24.129970505799083L48.73189973831177,23.20578328776737L48.90594223737717,22.96596752499717L49.07998473644256,23.13193604822731L49.25402723550797,23.543046536490472L49.60211223363876,24.420231497502467L49.77615473270416,25.271428516932904L49.950197231769565,26.110690948864434L50.298282229900366,27.275618235950958L50.47232472896576,28.31838829032258L50.82040972709655,29.631331338660804L51.168494725227355,31.12609321705482L51.342537224292755,32.393826588417745L51.516579723358156,33.52676632208101L52.03870722055436,35.32093866436944L52.21274971961975,36.79931479240267L52.734877216815946,38.8662690031253L52.908919715881346,40.5374855797747L53.25700471401215,42.379999493431306L53.43104721307754,43.93063972739591L53.60508971214295,45.3075495628128L53.77913221120834,46.584678845589146L53.95317471027374,47.80797552504921L54.127217209339136,49.005929272129784L54.301259708404544,50.19625380197161L54.649344706535345,51.86275254455142L54.82338720560074,53.3660153366073L54.99742970466614,54.77772486321333L55.17147220373153,56.142585398686734L55.519557201862334,58.00595545691562L55.693599700927734,59.67952932693341L55.867642199993135,61.24670533349011L56.56381219625473,64.45266716533104L56.737854695320124,67.0429811897016L56.91189719438553,69.25690832299836L57.085939693450925,71.24982852680122L57.259982192516325,73.12087185049832L57.434024691581726,74.93280844619584L57.60806719064713,76.72543461187016L57.78210968971252,78.52424757241161L58.13019468784332,81.07265970609909L58.478279685974115,84.16163524168479L58.65232218503952,86.87656142351045L58.82636468410492,89.38056190450132L59.000407183170324,91.77931072838369L59.17444968223572,94.14113304384271L59.34849218130112,96.5106960526914L59.69657717943192,99.87601955760672L59.87061967849731,102.98137290654303L60.044662177562714,105.96299297341434L60.218704676628114,108.9110557502746L60.392747175693515,111.88628915924L60.56678967475891,114.93119015230062L60.91487467288971,119.35219741011849L61.611044669151305,127.74038176010865L61.959129667282106,136.56384883221386L62.1331721663475,144.3054289720456L62.30721466541291,151.45266733932095L62.4812571644783,158.38837007449763L62.6552996635437,165.4156413603329L62.829342162609095,167.34291499033682L63.0033846616745,165.91442028321208L63.177427160739896,162.58751655095256L63.3514696598053,158.33710746946824L63.6995546579361,151.6285711015974L64.04763965606689,144.08527659156874L64.2216821551323,138.21019862234755L64.39572465419769,133.31469804639218L64.56976715326309,129.03735506881273L64.7438096523285,125.17765247651056L65.0918946504593,120.30146065646001L65.26593714952469,116.29473852821025L65.43997964859008,112.82129535885548L65.61402214765549,109.69483251540747L65.78806464672088,106.80851568366407L66.13614964485168,103.07985581415667L66.31019214391708,99.96443746383483L66.48423464298249,97.22761861340148L66.65827714204788,94.73695672968952L66.83231964111327,92.41580050466916L67.00636214017868,90.21875078450186L67.18040463924407,88.11822590454287L67.70253213644028,84.54100349284433L67.87657463550568,81.74018080315135L68.05061713457108,79.39719602499851L68.22465963363648,77.33450963348517L68.39870213270187,75.45072747255173L68.74678713083267,73.03503059461556L69.09487212896347,70.36702618581346L69.26891462802887,68.2085552803413L69.44295712709427,66.35548514698128L69.61699962615967,64.6916434220283L69.96508462429045,62.591571757905214L70.13912712335588,60.81843105742544L70.31316962242127,59.245288128790065L70.48721212148666,57.79880395435666L70.66125462055206,56.43607614375793L70.83529711961747,55.13174001652651L71.00933961868286,53.8706209934096L71.18338211774825,52.643512005331274L71.35742461681366,51.44471195364021L71.53146711587907,50.27059043715341L71.87955211400985,48.66478186342809L72.22763711214066,46.832798245343355L72.40167961120606,45.324948489704795L72.74976460933685,43.591381137367215L72.92380710840226,42.159975027895534L73.09784960746765,40.91081571906357L73.27189210653304,39.77437427492031L73.44593460559844,38.709923176146354L73.79401960372925,37.309827420840975L73.96806210279465,36.106666057625844L74.14210460186004,35.024102696638764L74.66423209905625,33.2927072934315L75.01231709718704,31.568336244743328L75.18635959625244,30.209172823473782L75.36040209531784,29.067133710055433L75.53444459438323,28.05663889248247L75.70848709344864,27.127671940270435L75.88252959251405,26.25077391710161L76.05657209157944,25.408499214331975L76.23061459064483,24.590457230837604L76.40465708971023,23.790417929699252L76.75274208784104,23.314898574986604L76.92678458690644,23.34159327955103L77.27486958503724,23.982890615931538L77.44891208410263,24.687242426733917L77.62295458316802,25.43353868622033L77.79699708223342,26.209125394610794L77.97103958129884,27.006438120375954L78.14508208036423,27.820993091514982L78.66720957756041,29.326609015889307L78.84125207662584,30.59178673579166L79.01529457569123,31.71362726912792L79.18933707475662,32.75241126438307L79.53742207288742,34.10917044724892L79.71146457195282,35.306815695896645L79.88550707101821,36.41213229787331L80.05954957008362,37.466411448856874L80.40763456821442,38.885511644078726L80.58167706727981,40.149227270760804L80.92976206541061,41.73075825145965L81.45188956260681,43.95199622939539L81.79997456073761,46.1873855265443L81.974017059803,48.01158795509332L82.32210205793382,50.04753993384889L82.49614455699921,51.77125924754757L82.6701870560646,53.309870675173904L82.84422955513,54.74332189081034L83.19231455326081,56.62860725168502L83.36635705232621,58.3053027349689L83.5403995513916,59.86348129158775L83.714442050457,61.35960495426006L83.8884845495224,62.82901045866687L84.0625270485878,64.29392469981441L84.23656954765319,65.76850997614818L84.4106120467186,67.26200118193913L84.584654545784,68.78065569875166L84.7586970448494,70.32894122750504L84.93273954391479,71.91027810624459L85.2808245420456,74.18416769548783L85.454867041111,76.26320413129919L86.15103703737259,80.37436499577579L86.32507953643798,83.7222344336229L86.49912203550338,86.60178638170748L86.6731645345688,89.20934654960584L86.84720703363419,91.67282108644577L87.02124953269958,94.07494852618561L87.5433770298958,98.32981439789907L87.71741952896119,102.00593327369776L87.89146202802658,105.34970321982837L88.06550452709197,108.5260349269855L88.23954702615738,111.64462957269929L88.41358952522278,114.77941547155183L88.58763202428817,117.98196059929212L88.93571702241898,122.6278659039363L89.10975952148438,127.00266722840314L89.28380202054977,131.28833275678548L89.45784451961516,135.61371309051282L89.63188701868057,140.0744112805635L89.80592951774598,144.74720857862857L90.15401451587677,151.7469641000267L90.32805701494217,158.58387732919L90.50209951400757,165.5457288106892L90.67614201307296,167.4231944215923L90.85018451213836,165.96156954993697L91.19826951026917,160.21746446613372L91.72039700746535,150.57038108927753L92.06848200559617,141.7002955644894L92.24252450466156,135.2402619243203L92.41656700372695,130.11512602027983L92.59060950279236,125.78632870777386L92.76465200185775,121.9651139917381L92.93869450092315,118.48925396147875L93.28677949905396,114.06333886308269L93.46082199811936,110.40359486316166L93.63486449718475,107.21509573746691L93.98294949531555,103.31041687280023L94.33103449344635,99.1353147095562L94.50507699251175,95.83361147649316L94.67911949157715,93.04942259217401L94.85316199064255,90.58604770291714L95.02720448970794,88.331621022948L95.20124698877333,86.22111817241445L95.37528948783876,84.21596675113855L95.54933198690415,82.29275206686322L95.72337448596954,80.43684613425255L96.07145948410033,77.9376137326729L96.24550198316575,75.80199465423192L96.41954448223115,73.89202672056159L96.59358698129654,72.12825577391064L96.94167197942734,69.84252596232922L97.11571447849273,67.90324660030441L97.46379947662354,65.59342530356683L97.63784197568894,63.6771956446003L97.81188447475434,61.999665162410324L97.98592697381973,60.471849482938566L98.15996947288512,59.04190558907933L98.33401197195053,57.6792828612341L98.50805447101594,56.36576858385143L98.68209697008133,55.09035250505894L98.85613946914673,53.84624423770309L99.03018196821213,52.629147904540034L99.72635196447374,50.036709074035805L99.90039446353913,48.077620832849526L100.07443696260452,46.48929863215634L100.42252196073531,44.69518074138745L100.59656445980073,43.222372493375545L101.11869195699691,41.12861869930471L101.29273445606232,39.50649705587156L101.6408194541931,37.776840292754436L101.81486195325851,36.381541928282076L101.98890445232392,35.18627384868117L102.5110319495201,33.3875030775127L102.68507444858551,31.97634296305154L102.85911694765092,30.795295986777134L103.03315944671631,29.753508435372485L103.2072019457817,28.797942332026796L103.38124444484711,27.897390183025383L103.5552869439125,27.033381053614935L103.7293294429779,26.19491240454116L103.9033719420433,25.375391616386068L104.07741444110871,24.570829572085028L104.25145694017411,23.778779153718574L104.4254994392395,22.9977084622923L104.5995419383049,22.841487643545648L104.77358443737029,23.057037126136514L104.94762693643571,23.49782322079519L105.1216694355011,24.07747866001185L105.2957119345665,24.744573680733147L105.46975443363189,25.468313371452368L105.6437969326973,26.230228754866577L105.81783943176269,27.019249527166508L105.99188193082809,27.828772798373652L106.5140094280243,29.33138182812047L106.68805192708969,30.594704465091702L106.86209442615508,31.715407176462517L107.03613692522049,32.753495735013765L107.55826442241668,34.475650776364546L107.73230692148209,35.904000756191806L108.08039191961288,37.53900925756859L108.25443441867827,38.92998484146973L108.60251941680909,40.5766645420773L108.77656191587448,41.99296906223142L108.95060441493987,43.27370199204081L109.12464691400527,44.47789807425105L109.47273191213608,46.076189265369614L109.64677441120148,47.49685825292456L109.82081691026687,48.8157524473421L110.34294440746307,51.01045418328745L110.51698690652847,52.841868650421276L110.69102940559388,54.45612075098956L110.86507190465927,55.945507229895945L111.03911440372467,57.367782322805425L111.21315690279006,58.75898457278717L111.38719940185547,60.14167463003218L111.56124190092088,61.53011931187018L111.90932689905166,63.4945684782606L112.08336939811707,65.27720336293697L112.25741189718246,66.96021130046287L112.43145439624786,68.59530965218005L113.12762439250946,72.10811189377442L113.30166689157485,74.97118016840236L113.47570939064025,77.43795008305838L113.64975188970567,79.6743108006678L113.82379438877106,81.78689837394339L113.99783688783646,83.84381481441872L114.17187938690185,85.88873081948691L114.51996438503265,88.76381194673039L114.86804938316345,92.25176408615242L115.04209188222886,95.33045206186307L115.21613438129425,98.18176046695145L115.39017688035965,100.92499821377285L115.56421937942504,103.63843370817497L115.73826187849045,106.37425386652956L115.91230437755586,109.16851502569911L116.26038937568664,113.21270299542154L116.43443187475205,116.99211714422727L116.60847437381744,120.66504617176005L116.78251687288284,124.339937807653L117.13060187101365,129.57412130847874L117.30464437007905,134.51225239198257L117.47868686914444,139.36640928417648L118.00081436634065,148.11915687554162L118.17485686540604,156.15402595375107L118.34889936447144,163.9200405398014L118.52294186353683,166.41571132811276L118.69698436260224,165.3681875272329L118.87102686166763,162.2749706511832L119.04506936073302,158.1608264823412L119.39315435886384,151.53273461593446L119.56719685792923,145.9134733492927L119.74123935699463,140.95825523149358L119.91528185606002,136.4722464440766L120.08932435512543,132.33924722013793L120.26336685419083,128.4862284683823L120.78549435138703,122.12850321931812L120.95953685045242,117.32182685664893L121.30762184858321,112.2363903237715L121.48166434764863,108.25803831077629L121.65570684671403,104.9309211056809L122.00379184484481,101.01886285817238L122.1778343439102,97.83317136082529L122.35187684297563,95.08648820459194L122.87400434017181,90.90675070604405L123.04804683923722,87.7067632707902L123.22208933830261,85.07733685055331L123.396131837368,82.79374811833023L123.57017433643341,80.7288549278434L123.74421683549882,78.80922335111178L123.91825933456421,76.99170288350288L124.0923018336296,75.25048302090896L124.266344332695,73.56978886290709L124.61442933082581,71.30437277625795L124.78847182989121,69.36340408678632L124.9625143289566,67.62348803243748L125.13655682802201,66.01331907522355L125.3105993270874,64.4911234430237L125.4846418261528,63.03211124378951L125.83272682428361,61.07556535561081L126.35485432147979,58.34362450840396L126.52889682054519,56.24787854432578L127.0510243177414,53.546014136044924L127.3991093158722,51.031564965062L127.57315181493759,49.10961251418176L127.74719431400298,47.53570296748363L127.92123681306839,46.17116951931817L128.09527931213378,44.93594070151569L128.26932181119918,43.78324052556868L128.4433643102646,42.6855071484333L128.61740680933,41.62636542743581L128.79144930839539,40.59600049774091L128.96549180746078,39.58845579315208L129.13953430652617,38.60005247967807L129.31357680559157,37.62846078152518L129.487619304657,36.672153106388535L129.83570430278778,35.35743446300625L130.00974680185317,34.2143163945312L130.1837893009186,33.176816962656886L130.53187429904938,31.852462412020742L130.87995929718016,30.376111677360626L131.0540017962456,29.16556977775478L131.22804429531098,28.114807212681104L131.40208679437637,27.162090715417495L131.57612929344177,26.271157000873448L131.92421429157258,25.1004989439696L132.09825679063798,24.092379268854906L132.44634178876876,23.494643418901816L132.62038428783416,23.449425436499922L132.79442678689958,23.73452341943614L132.96846928596497,24.220622384174654L133.31655428409576,25.150075758359424L133.49059678316115,26.03694404241974L133.66463928222655,26.90185175274364L133.83868178129197,27.757461533003042L134.18676677942275,28.94875659806354L134.53485177755357,30.360543016346064L134.88293677568436,31.924775396245774L135.05697927474975,33.240194101111804L135.23102177381514,34.40735355702722L135.75314927101135,36.237585905120525L136.44931926727295,38.908750789360774L136.62336176633835,40.96616796890794L136.79740426540374,42.64399205021044L137.14548926353456,44.516779468354024L137.31953176259995,46.10007340676767L137.49357426166534,47.51149198660645L137.66761676073074,48.82470523931294L137.84165925979613,50.085530727603704L138.01570175886152,51.32241663860384L138.18974425792695,52.55308583840248L138.36378675699234,53.788689950497094L138.53782925605773,55.03636596793186L138.71187175512313,56.30081658295141L138.88591425418855,57.585277655639196L139.05995675325394,58.89211125565155L139.40804175138473,60.762091973745704L139.58208425045012,62.46200153438276L139.75612674951552,64.06866085374256L139.9301692485809,65.63028306857954L140.10421174764633,67.17717946986672L140.45229674577715,69.34007567735958L140.62633924484254,71.30120936903842L140.80038174390793,73.1525606398846L140.97442424297333,74.95233630631171L141.49655174016954,78.12206821965596L141.67059423923493,80.82180398552714L142.01867923736572,84.00397832768876L142.1927217364311,86.77804915237361L142.3667642354965,89.31920797608213L142.5408067345619,91.74116256422106L142.71484923362732,94.11742806273008L142.88889173269274,96.49596486604067L143.06293423175813,98.90882948535412L143.23697673082353,101.3783833000511L143.58506172895432,104.95340894115556L143.7591042280197,108.27655234736696L143.9331467270851,111.48776762520131L144.1071892261505,114.68079014319895L144.2812317252159,117.91989872883873L144.80335922241213,123.95159571267898L144.97740172147752,129.32211039106622L145.1514442205429,134.3494834674979L145.3254867196083,139.26143491900038L145.4995292186737,144.22340387939792L145.6735717177391,149.3618771340757L146.1956992149353,159.27462286790217L146.3697417140007,163.4863963439317L146.5437842130661,163.6223174433854L146.71782671213148,161.26877862269788L146.89186921119688,157.59090700161337L147.0659117102623,153.31586520096488L147.5880392074585,144.98555649381152L147.7620817065239,138.7039337681208L148.1101667046547,132.01970706893522L148.28420920372008,126.85161076041446L148.45825170278547,122.56710530365511L148.63229420185087,118.83169512512625L148.8063367009163,115.45969158038486L149.3284641981125,110.06261125925903L149.5025066971779,105.95577718330279L149.6765491962433,102.59434188044823L149.85059169530868,99.68581906782178L150.1986766934395,96.14762537962083L150.54676169157028,92.36112517106456L150.89484668970107,88.5352240525667L151.24293168783186,84.7779955609649L151.41697418689728,81.87650539956526L151.5910166859627,79.47617182010863L151.7650591850281,77.38046032260924L151.9391016840935,75.47753665680109L152.28718668222427,73.0505503282529L152.46122918128967,71.00260835978227L152.63527168035506,69.18730481632977L152.80931417942045,67.52045671508544L152.98335667848585,65.95293582473569L153.15739917755127,64.45569338405544L153.50548417568208,62.45423056986377L153.67952667474748,60.738125129982244L153.85356917381287,59.19820098586692L154.02761167287827,57.771145607055246L154.37569667100905,55.91428382230225L154.54973917007447,54.330375167662105L154.72378166913987,52.914025498532496L154.89782416820526,51.60403708041754L155.24590916633605,49.902118048457666L155.41995166540144,48.44864306629015L155.59399416446684,47.147461949464876L155.76803666353226,45.9426083933825L155.94207916259768,44.80119280719135L156.11612166166307,43.70372578301286L156.46420665979386,42.225947359028304L156.63824915885925,40.94966683720568L156.98633415699004,39.40161344182602L157.16037665605543,38.10138800806064L157.50846165418625,36.57210502714148L158.03058915138246,34.55999405323805L158.20463165044785,33.020894800407056L158.37867414951324,31.760679946761577L158.72675914764403,30.32221635411841L158.90080164670945,29.133801115718104L159.24888664484024,27.763077049106826L159.42292914390563,26.626383830492873L159.59697164297103,25.630823595945206L159.94505664110181,24.405362756972984L160.11909914016724,23.36864027037008L160.29314163923266,23.06328864243694L160.46718413829805,23.19045542105152L160.64122663736345,23.578366211612106L160.81526913642884,24.126209016267396L160.98931163549423,24.774097562260472L161.16335413455963,25.48621676946646L161.33739663362502,26.241091944523827L161.5114391326904,27.025843728977453L161.6854816317558,27.832776891512054L161.85952413082123,28.65733168010256L162.03356662988665,29.496849728258095L162.20760912895204,30.34982870807752L162.38165162801744,31.215471494208458L162.55569412708283,32.09341327087725L162.72973662614822,32.98355633691071L162.90377912521362,33.885970169957716L163.25186412334443,35.170415036252564L163.42590662240983,36.32891047769486L163.59994912147522,37.41568158297863L163.948034119606,38.85442370480442L164.1220766186714,40.13022095466501L164.2961191177368,41.3120316687538L164.47016161680222,42.44257819670059L164.64420411586764,43.54827007349918L165.5144166111946,46.37268221270949L165.68845911026,48.57609452379397L165.8625016093254,50.39604002886085L166.2105866074562,52.46244022874812L166.38462910652163,54.222711766159705L166.55867160558702,55.80224763179315L166.73271410465242,57.27996355494215L166.9067566037178,58.70518453632136L167.428884100914,61.18905233867428L167.6029265999794,63.28369325558056L167.7769690990448,65.14722074109977L167.9510115981102,66.88022678423582L168.1250540971756,68.54613319764792L168.299096596241,70.18487243315823L168.47313909530638,71.8217552509453L168.64718159437177,73.47308317128851L168.8212240934372,75.14965723547056L168.99526659250262,76.85895684312766L169.169309091568,78.60648939518721L169.3433515906334,80.39662743012754L169.6914365887642,82.98052275789057L169.86547908782958,85.35355373758684L170.03952158689498,87.61854195704423L170.21356408596037,89.84158677752164L170.38760658502576,92.06554414407242L170.5616490840912,94.31883475452013L170.7356915831566,96.62106445837108L170.909734082222,98.98658860089012L171.0837765812874,101.42676358914949L171.60590407848358,106.03265157187415L171.77994657754897,110.06729008320256L171.9539890766144,113.78381988899963L172.12803157567978,117.3539245454951L172.30207407474518,120.89402278606379L172.47611657381057,124.48490642871793L172.82420157194136,129.66806702315466L172.99824407100675,134.57287511114794L173.17228657007217,139.40548368621552L173.3463290691376,144.31637843330955L173.520371568203,149.422051410545L173.86845656633378,157.0316345845334L174.04249906539917,164.50943221385742L174.73866906166074,159.41328121252414L174.91271156072617,154.33625693981077L175.0867540597916,149.42546062888917L175.26079655885698,144.74181710829998L175.43483905792237,140.302430644862L175.78292405605316,134.474377983245L175.95696655511856,129.68806625666667L176.30505155324937,124.14983538227195L176.47909405231476,119.72574856116725L176.65313655138016,115.96858170188091L177.00122154951094,111.47992530034054L177.17526404857634,107.8290523855566L177.34930654764173,104.68555382059316L177.52334904670715,101.86624640271523L177.69739154577258,99.26639556354544L177.87143404483797,96.82452633699647L178.04547654390336,94.50355435506602L178.21951904296876,92.28038632259282L178.39356154203415,90.14006659063368L178.56760404109954,88.07244817725443L178.74164654016494,86.07027193269757L178.91568903923033,84.1280624298106L179.08973153829572,82.24147447242584L179.26377403736115,80.40690775853604L179.61185903549196,77.92030085730158L179.78590153455735,75.79192932152648L179.95994403362275,73.88615552614714L180.13398653268814,72.12482368860687L180.30802903175353,70.46220123800055L180.48207153081893,68.8711246146817L180.83015652894974,66.74149169104896L181.00419902801514,64.91735085743065L181.35228402614592,62.7227634851836L181.52632652521132,60.895078019770565L181.87441152334213,58.76284422644366L182.22249652147295,56.49141824212176L182.74462401866913,53.686307600479424L182.91866651773452,51.583390295463275L183.4407940149307,48.97482424185853L183.78887901306155,46.573582878077055L183.96292151212694,44.744414473016256L184.13696401119233,43.25127196443573L184.48504900932312,41.55147590151885L184.6590915083885,40.151629828303996L184.8331340074539,38.93248685584816L185.35526150465012,37.058374392883046L185.5293040037155,35.584438222810505L185.8773890018463,33.983014207958405L186.0514315009117,32.68190049532997L186.2254739999771,31.56083310385295L186.39951649904253,30.549997673115154L186.9216439962387,28.929226127156873L187.2697289943695,27.311975472596913L187.4437714934349,26.035326430896497L187.6178139925003,24.961329603847854L187.9658989906311,23.696592515029785L188.13994148969653,23.25898212804147L188.31398398876192,23.308024617686574L188.4880264878273,23.649289085893404L188.6620689868927,24.169099998155776L188.8361114859581,24.800076648592043L189.0101539850235,25.50196804494965L189.1841964840889,26.25064836218795L189.3582389831543,27.03164434644376L189.5322814822197,27.83629898215584L189.7063239812851,28.65947083817913L190.05440897941588,29.839788718806783L190.22845147848128,30.905046600842482L190.5765364766121,32.25860295522644L190.9246214747429,33.80645304634235L191.0986639738083,35.121778774775024L191.62079147100448,37.05711949478966L191.79483397006987,38.63443471140932L192.14291896820066,40.39481040295915L192.31696146726608,41.88148919545567L192.4910039663315,43.20551335790486L192.6650464653969,44.436241633120574L192.8390889644623,45.61670201002664L193.18717396259308,47.21494245314529L193.36121646165847,48.643132028958725L193.7093014597893,50.437351887702505L193.88334395885468,52.01091886540529L194.23142895698547,53.94429785937216L194.40547145605086,55.63111567290244L194.57951395511625,57.17496455902751L194.75355645418165,58.64082393099774L194.92759895324707,60.069289197946055L195.1016414523125,61.48577790177096L195.27568395137789,62.9063493053737L195.44972645044328,64.3413337189358L195.62376894950867,65.79757853926705L195.97185394763946,67.87829313688927L196.14589644670485,69.77355886367857L196.31993894577025,71.56862432436937L196.49398144483564,73.31733797346138L196.66802394390106,75.05382186628239L196.84206644296648,76.79996756916988L197.01610894203188,78.57016317030661L197.19015144109727,80.37424469766955L197.36419394016266,82.21933071233852L197.53823643922806,84.11096116981768L198.23440643548966,88.45540622472073L198.40844893455505,92.05676223034853L198.58249143362045,95.20793541202549L198.75653393268584,98.1050586798137L198.93057643175123,100.87706163668776L199.27866142988205,104.6358544068293L199.45270392894747,108.07624884074755L199.62674642801286,111.36167154508892L199.97483142614365,115.81179815500255L200.14887392520905,119.91493771160071L200.49695892333983,125.25363392767287L200.84504392147062,131.69219042703102L201.01908642053604,137.53503217910904L201.19312891960146,143.10366807560285L201.36717141866686,148.63488173133777L201.71525641679764,156.50206967039207L201.88929891586304,164.15408314920316L202.06334141492843,166.56132102449257L202.23738391399382,165.45417251276535L202.41142641305925,162.32424154300801L202.58546891212464,158.18863965279675L202.75951141119003,153.6518836952895L203.10759640932082,147.0753570752313L203.2816389083862,141.60366454053263L203.80376640558245,133.58035317417185L203.97780890464784,127.71465126450958L204.67397890090942,119.0922369283493L204.8480213999748,113.21595698964113L205.0220638990402,108.81045400815451L205.1961063981056,105.24590466942243L205.37014889717102,102.18816051439988L205.54419139623644,99.45207210197069L205.71823389530184,96.93191898911475L205.89227639436723,94.56579511325289L206.4144038915634,90.61256767704873L206.5884463906288,87.53825494308882L206.76248888969423,84.9800365052801L206.93653138875962,82.73728941398177L207.110573887825,80.69599273277815L207.4586588859558,78.0873388784641L207.8067438840866,75.21564257781709L207.980786383152,72.89882990199247L208.15482888221743,70.914250268064L208.50291388034822,68.52603584466057L208.6769563794136,66.54064327129844L208.850998878479,64.79997665923356L209.0250413775444,63.213296747604694L209.1990838766098,61.72775961969083L209.37312637567518,60.31221822432118L209.54716887474058,58.94808523867168L209.721211373806,57.62409784022585L209.89525387287142,56.33328906439412L210.06929637193682,55.071227012798474L210.7654663681984,52.38544419892209L211.1135513663292,49.89587930827402L211.2875938653946,47.99550017392369L211.46163636446,46.44115796302847L211.63567886352538,45.094871101702495L211.80972136259078,43.87694187445342L212.331848859787,41.91685618325409L212.6799338579178,39.96711426398481L212.8539763569832,38.43365402565588L213.20206135511398,36.766808730456276L213.37610385417938,35.41311828434928L213.72418885231016,33.8825752920692L213.89823135137556,32.62276751250831L214.2463163495064,31.175687535469184L214.94248634576797,28.9561439695582L215.11652884483337,27.327743204264184L215.29057134389876,26.04460969321468L215.46461384296418,24.966811643016705L215.63865634202958,24.013321887129084L216.33482633829115,24.073727351684305L216.68291133642197,24.742300557167663L216.8569538354874,25.466934812818355L217.20503883361818,26.5548714463561L217.37908133268357,27.546410320997204L217.55312383174896,28.483259283993608L217.90120882987975,29.732145605210707L218.07525132894514,30.83941487207837L218.24929382801054,31.86458166251403L218.59737882614138,33.20336207777349L218.94546382427217,34.752178599858105L219.11950632333756,36.07332506989332L219.29354882240295,37.2597310070439L219.64163382053374,38.758798573431584L219.81567631959916,40.071737079688404L220.16376131772995,41.68315341978513L220.33780381679534,43.084089880154345L220.51184631586074,44.36202356465322L220.68588881492613,45.57137730708908L220.85993131399152,46.74587119311931L221.03397381305695,47.90641076265127L221.20801631212237,49.06602898382484L221.38205881118776,50.23294763771173L221.55610131025315,51.412461313211764L221.73014380931855,52.608090628933795L222.25227130651473,54.806020678581845L222.42631380558012,56.667283214709634L222.77439880371094,58.853067346498264L222.94844130277636,60.73800611348915L223.12248380184175,62.44718111475747L223.29652630090715,64.0595544153854L223.64461129903793,66.20861896186062L223.81865379810333,68.13232898746222L223.99269629716872,69.93019993315363L224.16673879623414,71.66509430368112L224.68886629343032,74.69353429901884L224.86290879249572,77.265039602473L225.0369512915611,79.56702408413115L225.90716378688813,84.73743104694724L226.25524878501892,89.68032166404362L226.6033337831497,94.59081075975982L226.7773762822151,98.65897824407563L226.9514187812805,102.21427910656234L227.29950377941134,106.5374107788918L227.47354627847673,110.3883290996651L227.64758877754213,113.98714920806704L227.82163127660752,117.48246489859163L227.9956737756729,120.97526363902755L228.1697162747383,124.53629796863316L228.3437587738037,128.21803378627385L228.51780127286912,132.06274081050097L228.69184377193451,136.10802604381087L229.0399287700653,142.17056170376011L229.2139712691307,148.02583849203745L229.56205626726148,156.09095665949894L229.7360987663269,163.87758727182438L229.91014126539233,166.38927861275616L230.08418376445772,165.35257043241137L230.6063112616539,157.57751615621373L230.7803537607193,151.21480102541028L231.12843875885008,143.86290459276412L231.30248125791547,138.0877874809451L231.4765237569809,133.2463532478344L231.65056625604632,128.99885316808272L231.8246087551117,125.15583026266515L231.9986512541771,121.60687767318059L232.1726937532425,118.28484865984662L232.3467362523079,115.14700204851782L232.52077875137329,112.16474700138187L232.69482125043868,109.3179222352738L233.0429062485695,105.53428434931052L233.2169487476349,102.3533882340303L233.56503374576567,98.59381378631656L233.73907624483107,95.5236624740202L234.08716124296188,92.0064280463278L234.2612037420273,89.15226876691814L234.6092887401581,85.90778885002841L234.7833312392235,83.27423097758043L234.95737373828888,81.00805919394608L235.13141623735427,78.97191711860957L235.30545873641967,77.08668287580599L235.47950123548506,75.30600616632765L235.82758623361588,72.95120724809344L236.0016287326813,70.94476285044648L236.1756712317467,69.15351080752578L236.52375622987748,66.90552714639735L236.69779872894287,65.01310434499803L237.04588372707366,62.7783644894008L237.21992622613908,60.92754348667751L237.39396872520447,59.309228809138105L237.56801122426987,57.83634911742276L237.74205372333526,56.45815129674402L237.91609622240065,55.14473120736079L238.09013872146605,53.878271386933285L238.78630871772768,51.22344362581603L238.96035121679307,49.221447485975176L239.13439371585847,47.60123778813936L239.48247871398925,45.77478587291582L239.65652121305465,44.276781331644216L239.83056371212004,42.9764276482578L240.17864871025085,41.39052725145044L240.35269120931628,40.05699274274547L240.52673370838167,38.87670310792803L240.87481870651246,37.40779498473117L241.22290370464324,35.78935143589582L241.57098870277406,34.10300938988648L241.74503120183945,32.75249978516931L241.91907370090485,31.602487305456158L242.09311619997024,30.574616280064504L242.44120119810103,29.282488883124746L242.61524369716642,28.183852608609943L242.78928619623184,27.202929873361246L242.96332869529726,26.295336800181108L243.13737119436266,25.43490243343275L243.31141369342805,24.60610743073393L243.83354119062423,23.799697173543933L244.00758368968962,23.63217010044642L244.52971118688583,24.47438980501759L244.70375368595126,25.30432994338669L244.87779618501665,26.130676425151332L245.22588118314744,27.28781718074322L245.39992368221283,28.3258211373832L245.92205117940904,29.978216154984644L246.09609367847443,31.338664870916162L246.27013617753983,32.523703794305014L246.6182211756706,33.96907313992743L246.792263674736,35.22122082464451L246.9663061738014,36.35991614473132L247.14034867286682,37.43458468339648L247.31439117193224,38.475724775825185L247.48843367099764,39.502153140416226L247.66247617006303,40.525522852109845L248.01056116819382,41.961630010057526L248.53268866539,44.09505209308035L248.7067311644554,45.840731131377375L249.22885866165163,48.24586008815108L249.40290116071702,50.19230377278814L249.57694365978242,51.86032336734378L249.7509861588478,53.36452505661299L249.9250286579132,54.776811828265274L250.27311365604402,56.649267344302615L250.6211986541748,58.84190215269087L250.7952411532402,60.73111741944474L250.9692836523056,62.442942016392415L251.14332615137099,64.05694955085818L251.31736865043638,65.62309188809186L251.4914111495018,67.17276483293448L251.66545364856722,68.72588390134202L251.83949614763262,70.29531178248004L252.013538646698,71.88962104991539L252.1875811457634,73.51480118198592L252.3616236448288,75.17531334107586L252.5356661438942,76.87474341871298L252.70970864295958,78.61620887192763L252.88375114202498,80.40261539110016L253.05779364109037,82.23682257143749L253.4058786392212,84.89043559460518L253.5799211382866,87.3308330732811L254.1020486354828,91.3429402260416L254.27609113454818,94.75833299736087L254.624176132679,98.76567604480807L254.7982186317444,102.28173407579227L254.97226113080978,105.52344086026416L255.14630362987518,108.63523863290602L255.32034612894057,111.71322368034683L255.49438862800596,114.82251661125555L256.0165161252022,120.5805101320406L256.19055862426757,125.68503612328414L256.7126861214638,133.54566716436045L256.8867286205292,140.47803914222064L257.06077111959456,146.91369658021503L257.23481361866,153.18086813209374L257.40885611772535,159.5323522501152L257.58289861679077,166.17503981838675L257.93098361492156,165.2259007655768L258.105026113987,162.19337911195927L258.45311111211777,155.869541379783L258.62715361118313,150.2766998866029L258.975238609314,143.3564118382044L259.32332360744476,136.13836742965L259.4973661065102,130.61318530046623L259.67140860557555,126.06618264549286L259.845451104641,122.12365891645773L260.19353610277176,117.3191196620815L260.3675786018372,113.40324770750749L260.71566359996797,108.91567698749034L260.88970609903333,105.30577665084687L261.06374859809875,102.22248903666654L261.2377910971642,99.47185034237604L261.41183359622954,96.94335111284886L261.75991859436033,93.68618278428472L261.93396109342575,90.95370531064071L262.1080035924912,88.5447391066401L262.28204609155654,86.34497808306948L262.6301310896873,83.52618011378435L262.80417358875275,81.15413230064699L262.9782160878181,79.05692295707532L263.15225858688353,77.13627112199437L263.32630108594896,75.33498145487046L263.5003435850144,73.61923056689706L263.67438608407974,71.96865840977257L264.19651358127595,69.13472255505351L264.3705560803413,66.89462214509426L264.54459857940674,65.00674169774025L264.71864107847216,63.33440207925983L264.8926835775375,61.798817667757014L265.06672607660295,60.35396081173884L265.2407685756683,58.97262749640324L265.41481107473373,57.63853661270405L265.58885357379916,56.341788155528185L265.7628960728645,55.07623204841531L265.93693857192994,53.83792605251661L266.1109810709953,52.6242458939602L266.28502357006073,51.433354743597235L266.80715106725694,49.34364087413182L266.9811935663223,47.67279129226621L267.1552360653877,46.25174573244129L267.67736356258393,44.13184187235873L267.85140606164936,42.47693581808976" fill="none"></path></g></g></g></g><g opacity="0.2"><g><g><g><path style="fill: none;" stroke="rgb(255, 112, 67)" stroke-width="2px" d="M34.808499813079834,177.55015098106483L35.156584811210635,163.8267127188802L35.33062731027603,157.88527434582036L35.50466980934143,152.42396398078685L36.026797306537624,138.27357944161142L36.374882304668425,130.2562280258421L36.548924803733826,126.57794400459184L36.72296730279922,123.08946444843282L37.24509479999543,113.58910044658019L37.41913729906082,110.69742014162571L37.59317979812622,107.92434492309259L37.94126479625702,102.69765865924775L38.11530729532242,100.22839454174712L38.28934979438782,97.84612872553426L38.63743479251862,93.31949232873798L38.81147729158401,91.16495258611305L39.33360478878021,85.08493078002842L39.507647287845614,83.17395274480013L39.68168978691101,81.31549686153268L39.85573228597641,79.50675310665079L40.02977478504181,77.7451311050396L40.20381728410721,76.02823781808937L40.3778597831726,74.35385799478561L40.55190228223801,72.71993698514882L40.725944781303404,71.12456558152347L41.0740297794342,68.04248925164713L41.248072278499606,66.55257340350185L41.422114777565,65.09477802971418L41.59615727663041,63.667747363479926L41.7701997756958,62.27020970481247L42.118284773826595,59.558906761521754L42.292327272892,58.24296042340427L42.9884972691536,53.22122828819166L43.16253976821899,52.02197321121881L43.3365822672844,50.843616200085L43.51062476634979,49.685441377715385L43.684667265415186,48.546769032728804L43.858709764480594,47.42695322363381L44.03275226354599,46.325379578185284L44.20679476261139,45.241463269129554L44.38083726167679,44.17464714964016L44.72892225980758,42.09021510716635L45.251049757003784,39.079304890968594L45.42509225606918,38.104738797831644L45.599134755134585,37.144018632635984L45.77317725419998,36.196756474451306L46.12126225233078,34.341134006975146L46.29530475139618,33.432074797217695L46.469347250461574,32.5350742128488L46.64338974952698,31.649816523312847L46.991474747657776,29.91332748226437L47.16551724672318,29.06152341085293L47.51360224485397,27.389443833212933L47.86168724298477,25.757719989121625L48.20977224111557,24.164436841138386L48.383814740180966,23.381655105485216L48.55785723924637,22.60783102156084L48.73189973831177,21.842761895444497L48.90594223737717,22.60783102156084L49.07998473644256,23.381655105485216L49.25402723550797,24.164436841138386L49.60211223363876,25.757719989121625L49.77615473270416,26.568657014343078L49.950197231769565,27.389443833212933L50.298282229900366,29.06152341085293L50.47232472896576,29.91332748226437L50.82040972709655,31.649816523312847L51.168494725227355,33.432074797217695L51.342537224292755,34.341134006975146L51.516579723358156,35.262580479936695L52.03870722055436,38.104738797831644L52.21274971961975,39.079304890968594L52.734877216815946,42.09021510716635L52.908919715881346,43.12440003356073L53.25700471401215,45.241463269129554L53.43104721307754,46.325379578185284L53.60508971214295,47.42695322363381L53.77913221120834,48.546769032728804L53.95317471027374,49.685441377715385L54.127217209339136,50.843616200085L54.301259708404544,52.02197321121881L54.649344706535345,54.44213098639113L54.82338720560074,55.68548769512704L54.99742970466614,56.952134440452575L55.17147220373153,58.24296042340427L55.519557201862334,60.9009706107662L55.693599700927734,62.27020970481247L55.867642199993135,63.667747363479926L56.56381219625473,69.56596660720332L56.737854695320124,71.12456558152347L56.91189719438553,72.71993698514882L57.085939693450925,74.35385799478561L57.259982192516325,76.02823781808937L57.434024691581726,77.7451311050396L57.60806719064713,79.50675310665079L57.78210968971252,81.31549686153268L58.13019468784332,85.08493078002842L58.478279685974115,89.07694456028763L58.65232218503952,91.16495258611305L58.82636468410492,93.31949232873798L59.000407183170324,95.54493894320332L59.17444968223572,97.84612872553426L59.34849218130112,100.22839454174712L59.69657717943192,105.26051691953272L59.87061967849731,107.92434492309259L60.044662177562714,110.69742014162571L60.218704676628114,113.58910044658019L60.392747175693515,116.60997977826462L60.56678967475891,119.77214540786078L60.91487467288971,126.57794400459184L61.611044669151305,142.66939381496698L61.959129667282106,152.42396398078685L62.1331721663475,157.88527434582036L62.30721466541291,163.8267127188802L62.4812571644783,170.34090045252185L62.6552996635437,177.55015098106483L62.829342162609095,170.34090045252185L63.0033846616745,163.8267127188802L63.177427160739896,157.88527434582036L63.3514696598053,152.42396398078685L63.6995546579361,142.66939381496698L64.04763965606689,134.14615633348717L64.2216821551323,130.2562280258421L64.39572465419769,126.57794400459184L64.56976715326309,123.08946444843282L64.7438096523285,119.77214540786078L65.0918946504593,113.58910044658019L65.26593714952469,110.69742014162571L65.43997964859008,107.92434492309259L65.61402214765549,105.26051691953272L65.78806464672088,102.69765865924775L66.13614964485168,97.84612872553426L66.31019214391708,95.54493894320332L66.48423464298249,93.31949232873798L66.65827714204788,91.16495258611305L66.83231964111327,89.07694456028763L67.00636214017868,87.0514820668049L67.18040463924407,85.08493078002842L67.70253213644028,79.50675310665079L67.87657463550568,77.7451311050396L68.05061713457108,76.02823781808937L68.22465963363648,74.35385799478561L68.39870213270187,72.71993698514882L68.74678713083267,69.56596660720332L69.09487212896347,66.55257340350185L69.26891462802887,65.09477802971418L69.44295712709427,63.667747363479926L69.61699962615967,62.27020970481247L69.96508462429045,59.558906761521754L70.13912712335588,58.24296042340427L70.31316962242127,56.952134440452575L70.48721212148666,55.68548769512704L70.66125462055206,54.44213098639113L70.83529711961747,53.22122828819166L71.00933961868286,52.02197321121881L71.18338211774825,50.843616200085L71.35742461681366,49.685441377715385L71.53146711587907,48.546769032728804L71.87955211400985,46.325379578185284L72.22763711214066,44.17464714964016L72.40167961120606,43.12440003356073L72.74976460933685,41.071612645186626L72.92380710840226,40.06812185101108L73.09784960746765,39.079304890968594L73.27189210653304,38.104738797831644L73.44593460559844,37.144018632635984L73.79401960372925,35.262580479936695L73.96806210279465,34.341134006975146L74.14210460186004,33.432074797217695L74.66423209905625,30.77599823812881L75.01231709718704,29.06152341085293L75.18635959625244,28.220315660316928L75.36040209531784,27.389443833212933L75.53444459438323,26.568657014343078L75.70848709344864,25.757719989121625L75.88252959251405,24.95638604408614L76.05657209157944,24.164436841138386L76.23061459064483,23.381655105485216L76.40465708971023,22.60783102156084L76.75274208784104,22.60783102156084L76.92678458690644,23.381655105485216L77.27486958503724,24.95638604408614L77.44891208410263,25.757719989121625L77.62295458316802,26.568657014343078L77.79699708223342,27.389443833212933L77.97103958129884,28.220315660316928L78.14508208036423,29.06152341085293L78.66720957756041,31.649816523312847L78.84125207662584,32.5350742128488L79.01529457569123,33.432074797217695L79.18933707475662,34.341134006975146L79.53742207288742,36.196756474451306L79.71146457195282,37.144018632635984L79.88550707101821,38.104738797831644L80.05954957008362,39.079304890968594L80.40763456821442,41.071612645186626L80.58167706727981,42.09021510716635L80.92976206541061,44.17464714964016L81.45188956260681,47.42695322363381L81.79997456073761,49.685441377715385L81.974017059803,50.843616200085L82.32210205793382,53.22122828819166L82.49614455699921,54.44213098639113L82.6701870560646,55.68548769512704L82.84422955513,56.952134440452575L83.19231455326081,59.558906761521754L83.36635705232621,60.9009706107662L83.5403995513916,62.27020970481247L83.714442050457,63.667747363479926L83.8884845495224,65.09477802971418L84.0625270485878,66.55257340350185L84.23656954765319,68.04248925164713L84.4106120467186,69.56596660720332L84.584654545784,71.12456558152347L84.7586970448494,72.71993698514882L84.93273954391479,74.35385799478561L85.2808245420456,77.7451311050396L85.454867041111,79.50675310665079L86.15103703737259,87.0514820668049L86.32507953643798,89.07694456028763L86.49912203550338,91.16495258611305L86.6731645345688,93.31949232873798L86.84720703363419,95.54493894320332L87.02124953269958,97.84612872553426L87.5433770298958,105.26051691953272L87.71741952896119,107.92434492309259L87.89146202802658,110.69742014162571L88.06550452709197,113.58910044658019L88.23954702615738,116.60997977826462L88.41358952522278,119.77214540786078L88.58763202428817,123.08946444843282L88.93571702241898,130.2562280258421L89.10975952148438,134.14615633348717L89.28380202054977,138.27357944161142L89.45784451961516,142.66939381496698L89.63188701868057,147.37094206635325L89.80592951774598,152.42396398078685L90.15401451587677,163.8267127188802L90.32805701494217,170.34090045252185L90.50209951400757,177.55015098106483L90.67614201307296,170.34090045252185L90.85018451213836,163.8267127188802L91.19826951026917,152.42396398078685L91.72039700746535,138.27357944161142L92.06848200559617,130.2562280258421L92.24252450466156,126.57794400459184L92.41656700372695,123.08946444843282L92.59060950279236,119.77214540786078L92.76465200185775,116.60997977826462L92.93869450092315,113.58910044658019L93.28677949905396,107.92434492309259L93.46082199811936,105.26051691953272L93.63486449718475,102.69765865924775L93.98294949531555,97.84612872553426L94.33103449344635,93.31949232873798L94.50507699251175,91.16495258611305L94.67911949157715,89.07694456028763L94.85316199064255,87.0514820668049L95.02720448970794,85.08493078002842L95.20124698877333,83.17395274480013L95.37528948783876,81.31549686153268L95.54933198690415,79.50675310665079L95.72337448596954,77.7451311050396L96.07145948410033,74.35385799478561L96.24550198316575,72.71993698514882L96.41954448223115,71.12456558152347L96.59358698129654,69.56596660720332L96.94167197942734,66.55257340350185L97.11571447849273,65.09477802971418L97.46379947662354,62.27020970481247L97.63784197568894,60.9009706107662L97.81188447475434,59.558906761521754L97.98592697381973,58.24296042340427L98.15996947288512,56.952134440452575L98.33401197195053,55.68548769512704L98.50805447101594,54.44213098639113L98.68209697008133,53.22122828819166L98.85613946914673,52.02197321121881L99.03018196821213,50.843616200085L99.72635196447374,46.325379578185284L99.90039446353913,45.241463269129554L100.07443696260452,44.17464714964016L100.42252196073531,42.09021510716635L100.59656445980073,41.071612645186626L101.11869195699691,38.104738797831644L101.29273445606232,37.144018632635984L101.6408194541931,35.262580479936695L101.81486195325851,34.341134006975146L101.98890445232392,33.432074797217695L102.5110319495201,30.77599823812881L102.68507444858551,29.91332748226437L102.85911694765092,29.06152341085293L103.03315944671631,28.220315660316928L103.2072019457817,27.389443833212933L103.38124444484711,26.568657014343078L103.5552869439125,25.757719989121625L103.7293294429779,24.95638604408614L103.9033719420433,24.164436841138386L104.07741444110871,23.381655105485216L104.25145694017411,22.60783102156084L104.4254994392395,21.842761895444497L104.5995419383049,22.60783102156084L104.77358443737029,23.381655105485216L104.94762693643571,24.164436841138386L105.1216694355011,24.95638604408614L105.2957119345665,25.757719989121625L105.46975443363189,26.568657014343078L105.6437969326973,27.389443833212933L105.81783943176269,28.220315660316928L105.99188193082809,29.06152341085293L106.5140094280243,31.649816523312847L106.68805192708969,32.5350742128488L106.86209442615508,33.432074797217695L107.03613692522049,34.341134006975146L107.55826442241668,37.144018632635984L107.73230692148209,38.104738797831644L108.08039191961288,40.06812185101108L108.25443441867827,41.071612645186626L108.60251941680909,43.12440003356073L108.77656191587448,44.17464714964016L108.95060441493987,45.241463269129554L109.12464691400527,46.325379578185284L109.47273191213608,48.546769032728804L109.64677441120148,49.685441377715385L109.82081691026687,50.843616200085L110.34294440746307,54.44213098639113L110.51698690652847,55.68548769512704L110.69102940559388,56.952134440452575L110.86507190465927,58.24296042340427L111.03911440372467,59.558906761521754L111.21315690279006,60.9009706107662L111.38719940185547,62.27020970481247L111.56124190092088,63.667747363479926L111.90932689905166,66.55257340350185L112.08336939811707,68.04248925164713L112.25741189718246,69.56596660720332L112.43145439624786,71.12456558152347L113.12762439250946,77.7451311050396L113.30166689157485,79.50675310665079L113.47570939064025,81.31549686153268L113.64975188970567,83.17395274480013L113.82379438877106,85.08493078002842L113.99783688783646,87.0514820668049L114.17187938690185,89.07694456028763L114.51996438503265,93.31949232873798L114.86804938316345,97.84612872553426L115.04209188222886,100.22839454174712L115.21613438129425,102.69765865924775L115.39017688035965,105.26051691953272L115.56421937942504,107.92434492309259L115.73826187849045,110.69742014162571L115.91230437755586,113.58910044658019L116.26038937568664,119.77214540786078L116.43443187475205,123.08946444843282L116.60847437381744,126.57794400459184L116.78251687288284,130.2562280258421L117.13060187101365,138.27357944161142L117.30464437007905,142.66939381496698L117.47868686914444,147.37094206635325L118.00081436634065,163.8267127188802L118.17485686540604,170.34090045252185L118.34889936447144,177.55015098106483L118.52294186353683,170.34090045252185L118.69698436260224,163.8267127188802L118.87102686166763,157.88527434582036L119.04506936073302,152.42396398078685L119.39315435886384,142.66939381496698L119.56719685792923,138.27357944161142L119.74123935699463,134.14615633348717L119.91528185606002,130.2562280258421L120.08932435512543,126.57794400459184L120.26336685419083,123.08946444843282L120.78549435138703,113.58910044658019L120.95953685045242,110.69742014162571L121.30762184858321,105.26051691953272L121.48166434764863,102.69765865924775L121.65570684671403,100.22839454174712L122.00379184484481,95.54493894320332L122.1778343439102,93.31949232873798L122.35187684297563,91.16495258611305L122.87400434017181,85.08493078002842L123.04804683923722,83.17395274480013L123.22208933830261,81.31549686153268L123.396131837368,79.50675310665079L123.57017433643341,77.7451311050396L123.74421683549882,76.02823781808937L123.91825933456421,74.35385799478561L124.0923018336296,72.71993698514882L124.266344332695,71.12456558152347L124.61442933082581,68.04248925164713L124.78847182989121,66.55257340350185L124.9625143289566,65.09477802971418L125.13655682802201,63.667747363479926L125.3105993270874,62.27020970481247L125.4846418261528,60.9009706107662L125.83272682428361,58.24296042340427L126.35485432147979,54.44213098639113L126.52889682054519,53.22122828819166L127.0510243177414,49.685441377715385L127.3991093158722,47.42695322363381L127.57315181493759,46.325379578185284L127.74719431400298,45.241463269129554L127.92123681306839,44.17464714964016L128.09527931213378,43.12440003356073L128.26932181119918,42.09021510716635L128.4433643102646,41.071612645186626L128.61740680933,40.06812185101108L128.79144930839539,39.079304890968594L128.96549180746078,38.104738797831644L129.13953430652617,37.144018632635984L129.31357680559157,36.196756474451306L129.487619304657,35.262580479936695L129.83570430278778,33.432074797217695L130.00974680185317,32.5350742128488L130.1837893009186,31.649816523312847L130.53187429904938,29.91332748226437L130.87995929718016,28.220315660316928L131.0540017962456,27.389443833212933L131.22804429531098,26.568657014343078L131.40208679437637,25.757719989121625L131.57612929344177,24.95638604408614L131.92421429157258,23.381655105485216L132.09825679063798,22.60783102156084L132.44634178876876,22.60783102156084L132.62038428783416,23.381655105485216L132.79442678689958,24.164436841138386L132.96846928596497,24.95638604408614L133.31655428409576,26.568657014343078L133.49059678316115,27.389443833212933L133.66463928222655,28.220315660316928L133.83868178129197,29.06152341085293L134.18676677942275,30.77599823812881L134.53485177755357,32.5350742128488L134.88293677568436,34.341134006975146L135.05697927474975,35.262580479936695L135.23102177381514,36.196756474451306L135.75314927101135,39.079304890968594L136.44931926727295,43.12440003356073L136.62336176633835,44.17464714964016L136.79740426540374,45.241463269129554L137.14548926353456,47.42695322363381L137.31953176259995,48.546769032728804L137.49357426166534,49.685441377715385L137.66761676073074,50.843616200085L137.84165925979613,52.02197321121881L138.01570175886152,53.22122828819166L138.18974425792695,54.44213098639113L138.36378675699234,55.68548769512704L138.53782925605773,56.952134440452575L138.71187175512313,58.24296042340427L138.88591425418855,59.558906761521754L139.05995675325394,60.9009706107662L139.40804175138473,63.667747363479926L139.58208425045012,65.09477802971418L139.75612674951552,66.55257340350185L139.9301692485809,68.04248925164713L140.10421174764633,69.56596660720332L140.45229674577715,72.71993698514882L140.62633924484254,74.35385799478561L140.80038174390793,76.02823781808937L140.97442424297333,77.7451311050396L141.49655174016954,83.17395274480013L141.67059423923493,85.08493078002842L142.01867923736572,89.07694456028763L142.1927217364311,91.16495258611305L142.3667642354965,93.31949232873798L142.5408067345619,95.54493894320332L142.71484923362732,97.84612872553426L142.88889173269274,100.22839454174712L143.06293423175813,102.69765865924775L143.23697673082353,105.26051691953272L143.58506172895432,110.69742014162571L143.7591042280197,113.58910044658019L143.9331467270851,116.60997977826462L144.1071892261505,119.77214540786078L144.2812317252159,123.08946444843282L144.80335922241213,134.14615633348717L144.97740172147752,138.27357944161142L145.1514442205429,142.66939381496698L145.3254867196083,147.37094206635325L145.4995292186737,152.42396398078685L145.6735717177391,157.88527434582036L146.1956992149353,177.55015098106483L146.3697417140007,170.34090045252185L146.5437842130661,163.8267127188802L146.71782671213148,157.88527434582036L146.89186921119688,152.42396398078685L147.0659117102623,147.37094206635325L147.5880392074585,134.14615633348717L147.7620817065239,130.2562280258421L148.1101667046547,123.08946444843282L148.28420920372008,119.77214540786078L148.45825170278547,116.60997977826462L148.63229420185087,113.58910044658019L148.8063367009163,110.69742014162571L149.3284641981125,102.69765865924775L149.5025066971779,100.22839454174712L149.6765491962433,97.84612872553426L149.85059169530868,95.54493894320332L150.1986766934395,91.16495258611305L150.54676169157028,87.0514820668049L150.89484668970107,83.17395274480013L151.24293168783186,79.50675310665079L151.41697418689728,77.7451311050396L151.5910166859627,76.02823781808937L151.7650591850281,74.35385799478561L151.9391016840935,72.71993698514882L152.28718668222427,69.56596660720332L152.46122918128967,68.04248925164713L152.63527168035506,66.55257340350185L152.80931417942045,65.09477802971418L152.98335667848585,63.667747363479926L153.15739917755127,62.27020970481247L153.50548417568208,59.558906761521754L153.67952667474748,58.24296042340427L153.85356917381287,56.952134440452575L154.02761167287827,55.68548769512704L154.37569667100905,53.22122828819166L154.54973917007447,52.02197321121881L154.72378166913987,50.843616200085L154.89782416820526,49.685441377715385L155.24590916633605,47.42695322363381L155.41995166540144,46.325379578185284L155.59399416446684,45.241463269129554L155.76803666353226,44.17464714964016L155.94207916259768,43.12440003356073L156.11612166166307,42.09021510716635L156.46420665979386,40.06812185101108L156.63824915885925,39.079304890968594L156.98633415699004,37.144018632635984L157.16037665605543,36.196756474451306L157.50846165418625,34.341134006975146L158.03058915138246,31.649816523312847L158.20463165044785,30.77599823812881L158.37867414951324,29.91332748226437L158.72675914764403,28.220315660316928L158.90080164670945,27.389443833212933L159.24888664484024,25.757719989121625L159.42292914390563,24.95638604408614L159.59697164297103,24.164436841138386L159.94505664110181,22.60783102156084L160.11909914016724,21.842761895444497L160.29314163923266,22.60783102156084L160.46718413829805,23.381655105485216L160.64122663736345,24.164436841138386L160.81526913642884,24.95638604408614L160.98931163549423,25.757719989121625L161.16335413455963,26.568657014343078L161.33739663362502,27.389443833212933L161.5114391326904,28.220315660316928L161.6854816317558,29.06152341085293L161.85952413082123,29.91332748226437L162.03356662988665,30.77599823812881L162.20760912895204,31.649816523312847L162.38165162801744,32.5350742128488L162.55569412708283,33.432074797217695L162.72973662614822,34.341134006975146L162.90377912521362,35.262580479936695L163.25186412334443,37.144018632635984L163.42590662240983,38.104738797831644L163.59994912147522,39.079304890968594L163.948034119606,41.071612645186626L164.1220766186714,42.09021510716635L164.2961191177368,43.12440003356073L164.47016161680222,44.17464714964016L164.64420411586764,45.241463269129554L165.5144166111946,50.843616200085L165.68845911026,52.02197321121881L165.8625016093254,53.22122828819166L166.2105866074562,55.68548769512704L166.38462910652163,56.952134440452575L166.55867160558702,58.24296042340427L166.73271410465242,59.558906761521754L166.9067566037178,60.9009706107662L167.428884100914,65.09477802971418L167.6029265999794,66.55257340350185L167.7769690990448,68.04248925164713L167.9510115981102,69.56596660720332L168.1250540971756,71.12456558152347L168.299096596241,72.71993698514882L168.47313909530638,74.35385799478561L168.64718159437177,76.02823781808937L168.8212240934372,77.7451311050396L168.99526659250262,79.50675310665079L169.169309091568,81.31549686153268L169.3433515906334,83.17395274480013L169.6914365887642,87.0514820668049L169.86547908782958,89.07694456028763L170.03952158689498,91.16495258611305L170.21356408596037,93.31949232873798L170.38760658502576,95.54493894320332L170.5616490840912,97.84612872553426L170.7356915831566,100.22839454174712L170.909734082222,102.69765865924775L171.0837765812874,105.26051691953272L171.60590407848358,113.58910044658019L171.77994657754897,116.60997977826462L171.9539890766144,119.77214540786078L172.12803157567978,123.08946444843282L172.30207407474518,126.57794400459184L172.47611657381057,130.2562280258421L172.82420157194136,138.27357944161142L172.99824407100675,142.66939381496698L173.17228657007217,147.37094206635325L173.3463290691376,152.42396398078685L173.520371568203,157.88527434582036L173.86845656633378,170.34090045252185L174.04249906539917,177.55015098106483L174.73866906166074,152.42396398078685L174.91271156072617,147.37094206635325L175.0867540597916,142.66939381496698L175.26079655885698,138.27357944161142L175.43483905792237,134.14615633348717L175.78292405605316,126.57794400459184L175.95696655511856,123.08946444843282L176.30505155324937,116.60997977826462L176.47909405231476,113.58910044658019L176.65313655138016,110.69742014162571L177.00122154951094,105.26051691953272L177.17526404857634,102.69765865924775L177.34930654764173,100.22839454174712L177.52334904670715,97.84612872553426L177.69739154577258,95.54493894320332L177.87143404483797,93.31949232873798L178.04547654390336,91.16495258611305L178.21951904296876,89.07694456028763L178.39356154203415,87.0514820668049L178.56760404109954,85.08493078002842L178.74164654016494,83.17395274480013L178.91568903923033,81.31549686153268L179.08973153829572,79.50675310665079L179.26377403736115,77.7451311050396L179.61185903549196,74.35385799478561L179.78590153455735,72.71993698514882L179.95994403362275,71.12456558152347L180.13398653268814,69.56596660720332L180.30802903175353,68.04248925164713L180.48207153081893,66.55257340350185L180.83015652894974,63.667747363479926L181.00419902801514,62.27020970481247L181.35228402614592,59.558906761521754L181.52632652521132,58.24296042340427L181.87441152334213,55.68548769512704L182.22249652147295,53.22122828819166L182.74462401866913,49.685441377715385L182.91866651773452,48.546769032728804L183.4407940149307,45.241463269129554L183.78887901306155,43.12440003356073L183.96292151212694,42.09021510716635L184.13696401119233,41.071612645186626L184.48504900932312,39.079304890968594L184.6590915083885,38.104738797831644L184.8331340074539,37.144018632635984L185.35526150465012,34.341134006975146L185.5293040037155,33.432074797217695L185.8773890018463,31.649816523312847L186.0514315009117,30.77599823812881L186.2254739999771,29.91332748226437L186.39951649904253,29.06152341085293L186.9216439962387,26.568657014343078L187.2697289943695,24.95638604408614L187.4437714934349,24.164436841138386L187.6178139925003,23.381655105485216L187.9658989906311,21.842761895444497L188.13994148969653,22.60783102156084L188.31398398876192,23.381655105485216L188.4880264878273,24.164436841138386L188.6620689868927,24.95638604408614L188.8361114859581,25.757719989121625L189.0101539850235,26.568657014343078L189.1841964840889,27.389443833212933L189.3582389831543,28.220315660316928L189.5322814822197,29.06152341085293L189.7063239812851,29.91332748226437L190.05440897941588,31.649816523312847L190.22845147848128,32.5350742128488L190.5765364766121,34.341134006975146L190.9246214747429,36.196756474451306L191.0986639738083,37.144018632635984L191.62079147100448,40.06812185101108L191.79483397006987,41.071612645186626L192.14291896820066,43.12440003356073L192.31696146726608,44.17464714964016L192.4910039663315,45.241463269129554L192.6650464653969,46.325379578185284L192.8390889644623,47.42695322363381L193.18717396259308,49.685441377715385L193.36121646165847,50.843616200085L193.7093014597893,53.22122828819166L193.88334395885468,54.44213098639113L194.23142895698547,56.952134440452575L194.40547145605086,58.24296042340427L194.57951395511625,59.558906761521754L194.75355645418165,60.9009706107662L194.92759895324707,62.27020970481247L195.1016414523125,63.667747363479926L195.27568395137789,65.09477802971418L195.44972645044328,66.55257340350185L195.62376894950867,68.04248925164713L195.97185394763946,71.12456558152347L196.14589644670485,72.71993698514882L196.31993894577025,74.35385799478561L196.49398144483564,76.02823781808937L196.66802394390106,77.7451311050396L196.84206644296648,79.50675310665079L197.01610894203188,81.31549686153268L197.19015144109727,83.17395274480013L197.36419394016266,85.08493078002842L197.53823643922806,87.0514820668049L198.23440643548966,95.54493894320332L198.40844893455505,97.84612872553426L198.58249143362045,100.22839454174712L198.75653393268584,102.69765865924775L198.93057643175123,105.26051691953272L199.27866142988205,110.69742014162571L199.45270392894747,113.58910044658019L199.62674642801286,116.60997977826462L199.97483142614365,123.08946444843282L200.14887392520905,126.57794400459184L200.49695892333983,134.14615633348717L200.84504392147062,142.66939381496698L201.01908642053604,147.37094206635325L201.19312891960146,152.42396398078685L201.36717141866686,157.88527434582036L201.71525641679764,170.34090045252185L201.88929891586304,177.55015098106483L202.06334141492843,170.34090045252185L202.23738391399382,163.8267127188802L202.41142641305925,157.88527434582036L202.58546891212464,152.42396398078685L202.75951141119003,147.37094206635325L203.10759640932082,138.27357944161142L203.2816389083862,134.14615633348717L203.80376640558245,123.08946444843282L203.97780890464784,119.77214540786078L204.67397890090942,107.92434492309259L204.8480213999748,105.26051691953272L205.0220638990402,102.69765865924775L205.1961063981056,100.22839454174712L205.37014889717102,97.84612872553426L205.54419139623644,95.54493894320332L205.71823389530184,93.31949232873798L205.89227639436723,91.16495258611305L206.4144038915634,85.08493078002842L206.5884463906288,83.17395274480013L206.76248888969423,81.31549686153268L206.93653138875962,79.50675310665079L207.110573887825,77.7451311050396L207.4586588859558,74.35385799478561L207.8067438840866,71.12456558152347L207.980786383152,69.56596660720332L208.15482888221743,68.04248925164713L208.50291388034822,65.09477802971418L208.6769563794136,63.667747363479926L208.850998878479,62.27020970481247L209.0250413775444,60.9009706107662L209.1990838766098,59.558906761521754L209.37312637567518,58.24296042340427L209.54716887474058,56.952134440452575L209.721211373806,55.68548769512704L209.89525387287142,54.44213098639113L210.06929637193682,53.22122828819166L210.7654663681984,48.546769032728804L211.1135513663292,46.325379578185284L211.2875938653946,45.241463269129554L211.46163636446,44.17464714964016L211.63567886352538,43.12440003356073L211.80972136259078,42.09021510716635L212.331848859787,39.079304890968594L212.6799338579178,37.144018632635984L212.8539763569832,36.196756474451306L213.20206135511398,34.341134006975146L213.37610385417938,33.432074797217695L213.72418885231016,31.649816523312847L213.89823135137556,30.77599823812881L214.2463163495064,29.06152341085293L214.94248634576797,25.757719989121625L215.11652884483337,24.95638604408614L215.29057134389876,24.164436841138386L215.46461384296418,23.381655105485216L215.63865634202958,22.60783102156084L216.33482633829115,24.164436841138386L216.68291133642197,25.757719989121625L216.8569538354874,26.568657014343078L217.20503883361818,28.220315660316928L217.37908133268357,29.06152341085293L217.55312383174896,29.91332748226437L217.90120882987975,31.649816523312847L218.07525132894514,32.5350742128488L218.24929382801054,33.432074797217695L218.59737882614138,35.262580479936695L218.94546382427217,37.144018632635984L219.11950632333756,38.104738797831644L219.29354882240295,39.079304890968594L219.64163382053374,41.071612645186626L219.81567631959916,42.09021510716635L220.16376131772995,44.17464714964016L220.33780381679534,45.241463269129554L220.51184631586074,46.325379578185284L220.68588881492613,47.42695322363381L220.85993131399152,48.546769032728804L221.03397381305695,49.685441377715385L221.20801631212237,50.843616200085L221.38205881118776,52.02197321121881L221.55610131025315,53.22122828819166L221.73014380931855,54.44213098639113L222.25227130651473,58.24296042340427L222.42631380558012,59.558906761521754L222.77439880371094,62.27020970481247L222.94844130277636,63.667747363479926L223.12248380184175,65.09477802971418L223.29652630090715,66.55257340350185L223.64461129903793,69.56596660720332L223.81865379810333,71.12456558152347L223.99269629716872,72.71993698514882L224.16673879623414,74.35385799478561L224.68886629343032,79.50675310665079L224.86290879249572,81.31549686153268L225.0369512915611,83.17395274480013L225.90716378688813,93.31949232873798L226.25524878501892,97.84612872553426L226.6033337831497,102.69765865924775L226.7773762822151,105.26051691953272L226.9514187812805,107.92434492309259L227.29950377941134,113.58910044658019L227.47354627847673,116.60997977826462L227.64758877754213,119.77214540786078L227.82163127660752,123.08946444843282L227.9956737756729,126.57794400459184L228.1697162747383,130.2562280258421L228.3437587738037,134.14615633348717L228.51780127286912,138.27357944161142L228.69184377193451,142.66939381496698L229.0399287700653,152.42396398078685L229.2139712691307,157.88527434582036L229.56205626726148,170.34090045252185L229.7360987663269,177.55015098106483L229.91014126539233,170.34090045252185L230.08418376445772,163.8267127188802L230.6063112616539,147.37094206635325L230.7803537607193,142.66939381496698L231.12843875885008,134.14615633348717L231.30248125791547,130.2562280258421L231.4765237569809,126.57794400459184L231.65056625604632,123.08946444843282L231.8246087551117,119.77214540786078L231.9986512541771,116.60997977826462L232.1726937532425,113.58910044658019L232.3467362523079,110.69742014162571L232.52077875137329,107.92434492309259L232.69482125043868,105.26051691953272L233.0429062485695,100.22839454174712L233.2169487476349,97.84612872553426L233.56503374576567,93.31949232873798L233.73907624483107,91.16495258611305L234.08716124296188,87.0514820668049L234.2612037420273,85.08493078002842L234.6092887401581,81.31549686153268L234.7833312392235,79.50675310665079L234.95737373828888,77.7451311050396L235.13141623735427,76.02823781808937L235.30545873641967,74.35385799478561L235.47950123548506,72.71993698514882L235.82758623361588,69.56596660720332L236.0016287326813,68.04248925164713L236.1756712317467,66.55257340350185L236.52375622987748,63.667747363479926L236.69779872894287,62.27020970481247L237.04588372707366,59.558906761521754L237.21992622613908,58.24296042340427L237.39396872520447,56.952134440452575L237.56801122426987,55.68548769512704L237.74205372333526,54.44213098639113L237.91609622240065,53.22122828819166L238.09013872146605,52.02197321121881L238.78630871772768,47.42695322363381L238.96035121679307,46.325379578185284L239.13439371585847,45.241463269129554L239.48247871398925,43.12440003356073L239.65652121305465,42.09021510716635L239.83056371212004,41.071612645186626L240.17864871025085,39.079304890968594L240.35269120931628,38.104738797831644L240.52673370838167,37.144018632635984L240.87481870651246,35.262580479936695L241.22290370464324,33.432074797217695L241.57098870277406,31.649816523312847L241.74503120183945,30.77599823812881L241.91907370090485,29.91332748226437L242.09311619997024,29.06152341085293L242.44120119810103,27.389443833212933L242.61524369716642,26.568657014343078L242.78928619623184,25.757719989121625L242.96332869529726,24.95638604408614L243.13737119436266,24.164436841138386L243.31141369342805,23.381655105485216L243.83354119062423,22.60783102156084L244.00758368968962,23.381655105485216L244.52971118688583,25.757719989121625L244.70375368595126,26.568657014343078L244.87779618501665,27.389443833212933L245.22588118314744,29.06152341085293L245.39992368221283,29.91332748226437L245.92205117940904,32.5350742128488L246.09609367847443,33.432074797217695L246.27013617753983,34.341134006975146L246.6182211756706,36.196756474451306L246.792263674736,37.144018632635984L246.9663061738014,38.104738797831644L247.14034867286682,39.079304890968594L247.31439117193224,40.06812185101108L247.48843367099764,41.071612645186626L247.66247617006303,42.09021510716635L248.01056116819382,44.17464714964016L248.53268866539,47.42695322363381L248.7067311644554,48.546769032728804L249.22885866165163,52.02197321121881L249.40290116071702,53.22122828819166L249.57694365978242,54.44213098639113L249.7509861588478,55.68548769512704L249.9250286579132,56.952134440452575L250.27311365604402,59.558906761521754L250.6211986541748,62.27020970481247L250.7952411532402,63.667747363479926L250.9692836523056,65.09477802971418L251.14332615137099,66.55257340350185L251.31736865043638,68.04248925164713L251.4914111495018,69.56596660720332L251.66545364856722,71.12456558152347L251.83949614763262,72.71993698514882L252.013538646698,74.35385799478561L252.1875811457634,76.02823781808937L252.3616236448288,77.7451311050396L252.5356661438942,79.50675310665079L252.70970864295958,81.31549686153268L252.88375114202498,83.17395274480013L253.05779364109037,85.08493078002842L253.4058786392212,89.07694456028763L253.5799211382866,91.16495258611305L254.1020486354828,97.84612872553426L254.27609113454818,100.22839454174712L254.624176132679,105.26051691953272L254.7982186317444,107.92434492309259L254.97226113080978,110.69742014162571L255.14630362987518,113.58910044658019L255.32034612894057,116.60997977826462L255.49438862800596,119.77214540786078L256.0165161252022,130.2562280258421L256.19055862426757,134.14615633348717L256.7126861214638,147.37094206635325L256.8867286205292,152.42396398078685L257.06077111959456,157.88527434582036L257.23481361866,163.8267127188802L257.40885611772535,170.34090045252185L257.58289861679077,177.55015098106483L257.93098361492156,163.8267127188802L258.105026113987,157.88527434582036L258.45311111211777,147.37094206635325L258.62715361118313,142.66939381496698L258.975238609314,134.14615633348717L259.32332360744476,126.57794400459184L259.4973661065102,123.08946444843282L259.67140860557555,119.77214540786078L259.845451104641,116.60997977826462L260.19353610277176,110.69742014162571L260.3675786018372,107.92434492309259L260.71566359996797,102.69765865924775L260.88970609903333,100.22839454174712L261.06374859809875,97.84612872553426L261.2377910971642,95.54493894320332L261.41183359622954,93.31949232873798L261.75991859436033,89.07694456028763L261.93396109342575,87.0514820668049L262.1080035924912,85.08493078002842L262.28204609155654,83.17395274480013L262.6301310896873,79.50675310665079L262.80417358875275,77.7451311050396L262.9782160878181,76.02823781808937L263.15225858688353,74.35385799478561L263.32630108594896,72.71993698514882L263.5003435850144,71.12456558152347L263.67438608407974,69.56596660720332L264.19651358127595,65.09477802971418L264.3705560803413,63.667747363479926L264.54459857940674,62.27020970481247L264.71864107847216,60.9009706107662L264.8926835775375,59.558906761521754L265.06672607660295,58.24296042340427L265.2407685756683,56.952134440452575L265.41481107473373,55.68548769512704L265.58885357379916,54.44213098639113L265.7628960728645,53.22122828819166L265.93693857192994,52.02197321121881L266.1109810709953,50.843616200085L266.28502357006073,49.685441377715385L266.80715106725694,46.325379578185284L266.9811935663223,45.241463269129554L267.1552360653877,44.17464714964016L267.67736356258393,41.071612645186626L267.85140606164936,40.06812185101108" fill="none"></path></g></g></g></g></g></g><g transform="translate(51, 176)" clip-path="url(#clip_1)"><clipPath id="clip_1"><rect width="278" height="23"></rect></clipPath><g><g><line x1="0" y1="0" x2="0" y2="5" style="visibility: inherit;" fill="rgb(0, 0, 0)" stroke="rgb(204, 204, 204)" stroke-width="1px"></line><line x1="34.808499813079834" y1="0" x2="34.808499813079834" y2="5" style="visibility: inherit;" fill="rgb(0, 0, 0)" stroke="rgb(204, 204, 204)" stroke-width="1px"></line><line x1="69.61699962615967" y1="0" x2="69.61699962615967" y2="5" style="visibility: inherit;" fill="rgb(0, 0, 0)" stroke="rgb(204, 204, 204)" stroke-width="1px"></line><line x1="104.4254994392395" y1="0" x2="104.4254994392395" y2="5" style="visibility: inherit;" fill="rgb(0, 0, 0)" stroke="rgb(204, 204, 204)" stroke-width="1px"></line><line x1="139.23399925231934" y1="0" x2="139.23399925231934" y2="5" style="visibility: inherit;" fill="rgb(0, 0, 0)" stroke="rgb(204, 204, 204)" stroke-width="1px"></line><line x1="174.04249906539917" y1="0" x2="174.04249906539917" y2="5" style="visibility: inherit;" fill="rgb(0, 0, 0)" stroke="rgb(204, 204, 204)" stroke-width="1px"></line><line x1="208.850998878479" y1="0" x2="208.850998878479" y2="5" style="visibility: inherit;" fill="rgb(0, 0, 0)" stroke="rgb(204, 204, 204)" stroke-width="1px"></line><line x1="243.65949869155884" y1="0" x2="243.65949869155884" y2="5" style="visibility: inherit;" fill="rgb(0, 0, 0)" stroke="rgb(204, 204, 204)" stroke-width="1px"></line><line x1="278.4679985046387" y1="0" x2="278.4679985046387" y2="5" style="visibility: inherit;" fill="rgb(0, 0, 0)" stroke="rgb(204, 204, 204)" stroke-width="1px"></line></g><g transform="translate(0, 8)"><text style="text-anchor: middle; visibility: hidden; font-family: Roboto, sans-serif; font-size: 12px; font-weight: 200;" x="0" y="0" dx="0em" dy="0.95em" fill="rgb(33, 33, 33)" stroke="none" stroke-width="1px">-200</text><text style="text-anchor: middle; visibility: inherit; font-family: Roboto, sans-serif; font-size: 12px; font-weight: 200;" x="34.808499813079834" y="0" dx="0em" dy="0.95em" fill="rgb(33, 33, 33)" stroke="none" stroke-width="1px">0</text><text style="text-anchor: middle; visibility: inherit; font-family: Roboto, sans-serif; font-size: 12px; font-weight: 200;" x="69.61699962615967" y="0" dx="0em" dy="0.95em" fill="rgb(33, 33, 33)" stroke="none" stroke-width="1px">200</text><text style="text-anchor: middle; visibility: inherit; font-family: Roboto, sans-serif; font-size: 12px; font-weight: 200;" x="104.4254994392395" y="0" dx="0em" dy="0.95em" fill="rgb(33, 33, 33)" stroke="none" stroke-width="1px">400</text><text style="text-anchor: middle; visibility: inherit; font-family: Roboto, sans-serif; font-size: 12px; font-weight: 200;" x="139.23399925231934" y="0" dx="0em" dy="0.95em" fill="rgb(33, 33, 33)" stroke="none" stroke-width="1px">600</text><text style="text-anchor: middle; visibility: inherit; font-family: Roboto, sans-serif; font-size: 12px; font-weight: 200;" x="174.04249906539917" y="0" dx="0em" dy="0.95em" fill="rgb(33, 33, 33)" stroke="none" stroke-width="1px">800</text><text style="text-anchor: middle; visibility: inherit; font-family: Roboto, sans-serif; font-size: 12px; font-weight: 200;" x="208.850998878479" y="0" dx="0em" dy="0.95em" fill="rgb(33, 33, 33)" stroke="none" stroke-width="1px">1k</text><text style="text-anchor: middle; visibility: inherit; font-family: Roboto, sans-serif; font-size: 12px; font-weight: 200;" x="243.65949869155884" y="0" dx="0em" dy="0.95em" fill="rgb(33, 33, 33)" stroke="none" stroke-width="1px">1.2k</text><text style="text-anchor: middle; visibility: hidden; font-family: Roboto, sans-serif; font-size: 12px; font-weight: 200;" x="278.4679985046387" y="0" dx="0em" dy="0.95em" fill="rgb(33, 33, 33)" stroke="none" stroke-width="1px">1.4k</text></g><line x1="0" y1="0" x2="278.4679985046387" y2="0" fill="rgb(0, 0, 0)" stroke="rgb(204, 204, 204)" stroke-width="1px"></line></g></g></g></g></svg>