<svg viewBox="0 0 330 200" xmlns="http://www.w3.org/2000/svg"><g><g><g><g><g><line x1="51.53200149536133" y1="171.10537243285947" x2="46.53200149536133" y2="171.10537243285947" style="visibility: inherit;" fill="rgb(0, 0, 0)" stroke="rgb(204, 204, 204)" stroke-width="1px"></line><line x1="51.53200149536133" y1="130.47226510178922" x2="46.53200149536133" y2="130.47226510178922" style="visibility: inherit;" fill="rgb(0, 0, 0)" stroke="rgb(204, 204, 204)" stroke-width="1px"></line><line x1="51.53200149536133" y1="101.64261664769917" x2="46.53200149536133" y2="101.64261664769917" style="visibility: inherit;" fill="rgb(0, 0, 0)" stroke="rgb(204, 204, 204)" stroke-width="1px"></line><line x1="51.53200149536133" y1="79.28060401215639" x2="46.53200149536133" y2="79.28060401215639" style="visibility: inherit;" fill="rgb(0, 0, 0)" stroke="rgb(204, 204, 204)" stroke-width="1px"></line><line x1="51.53200149536133" y1="61.00950931662888" x2="46.53200149536133" y2="61.00950931662888" style="visibility: inherit;" fill="rgb(0, 0, 0)" stroke="rgb(204, 204, 204)" stroke-width="1px"></line><line x1="51.53200149536133" y1="45.56151886486465" x2="46.53200149536133" y2="45.56151886486465" style="visibility: inherit;" fill="rgb(0, 0, 0)" stroke="rgb(204, 204, 204)" stroke-width="1px"></line><line x1="51.53200149536133" y1="32.17986086253891" x2="46.53200149536133" y2="32.17986086253891" style="visibility: inherit;" fill="rgb(0, 0, 0)" stroke="rgb(204, 204, 204)" stroke-width="1px"></line><line x1="51.53200149536133" y1="20.376401985558516" x2="46.53200149536133" y2="20.376401985558516" style="visibility: inherit;" fill="rgb(0, 0, 0)" stroke="rgb(204, 204, 204)" stroke-width="1px"></line><line x1="51.53200149536133" y1="9.817848226996048" x2="46.53200149536133" y2="9.817848226996048" style="visibility: inherit;" fill="rgb(0, 0, 0)" stroke="rgb(204, 204, 204)" stroke-width="1px"></line></g><g transform="translate(41.53200149536133, 0)"><text style="text-anchor: end; visibility: hidden; font-family: Roboto, sans-serif; font-size: 12px; font-weight: 200;" x="0" y="171.10537243285947" dx="0em" dy="0.3em" fill="rgb(33, 33, 33)" stroke="none" stroke-width="1px">2e-3</text><text style="text-anchor: end; visibility: inherit; font-family: Roboto, sans-serif; font-size: 12px; font-weight: 200;" x="0" y="130.47226510178922" dx="0em" dy="0.3em" fill="rgb(33, 33, 33)" stroke="none" stroke-width="1px">3e-3</text><text style="text-anchor: end; visibility: hidden; font-family: Roboto, sans-serif; font-size: 12px; font-weight: 200;" x="0" y="101.64261664769917" dx="0em" dy="0.3em" fill="rgb(33, 33, 33)" stroke="none" stroke-width="1px">4e-3</text><text style="text-anchor: end; visibility: inherit; font-family: Roboto, sans-serif; font-size: 12px; font-weight: 200;" x="0" y="79.28060401215639" dx="0em" dy="0.3em" fill="rgb(33, 33, 33)" stroke="none" stroke-width="1px">5e-3</text><text style="text-anchor: end; visibility: hidden; font-family: Roboto, sans-serif; font-size: 12px; font-weight: 200;" x="0" y="61.00950931662888" dx="0em" dy="0.3em" fill="rgb(33, 33, 33)" stroke="none" stroke-width="1px">6e-3</text><text style="text-anchor: end; visibility: inherit; font-family: Roboto, sans-serif; font-size: 12px; font-weight: 200;" x="0" y="45.56151886486465" dx="0em" dy="0.3em" fill="rgb(33, 33, 33)" stroke="none" stroke-width="1px">7e-3</text><text style="text-anchor: end; visibility: hidden; font-family: Roboto, sans-serif; font-size: 12px; font-weight: 200;" x="0" y="32.17986086253891" dx="0em" dy="0.3em" fill="rgb(33, 33, 33)" stroke="none" stroke-width="1px">8e-3</text><text style="text-anchor: end; visibility: inherit; font-family: Roboto, sans-serif; font-size: 12px; font-weight: 200;" x="0" y="20.376401985558516" dx="0em" dy="0.3em" fill="rgb(33, 33, 33)" stroke="none" stroke-width="1px">9e-3</text><text style="text-anchor: end; visibility: hidden; font-family: Roboto, sans-serif; font-size: 12px; font-weight: 200;" x="0" y="9.817848226996048" dx="0em" dy="0.3em" fill="rgb(33, 33, 33)" stroke="none" stroke-width="1px">0.01</text></g><line x1="51.53200149536133" y1="0" x2="51.53200149536133" y2="176.89999961853027" fill="rgb(0, 0, 0)" stroke="rgb(204, 204, 204)" stroke-width="1px"></line></g></g><g transform="translate(51, 0)" clip-path="url(#clip_0)"><clipPath id="clip_0"><rect width="278" height="176"></rect></clipPath><g><g><g><line x1="0" y1="0" x2="0" y2="176.89999961853027" fill="rgb(0, 0, 0)" stroke="rgb(66, 66, 66)" stroke-width="1px" opacity="0.25"></line><line x1="34.808499813079834" y1="0" x2="34.808499813079834" y2="176.89999961853027" fill="rgb(0, 0, 0)" stroke="rgb(66, 66, 66)" stroke-width="1px" opacity="0.25"></line><line x1="69.61699962615967" y1="0" x2="69.61699962615967" y2="176.89999961853027" fill="rgb(0, 0, 0)" stroke="rgb(66, 66, 66)" stroke-width="1px" opacity="0.25"></line><line x1="104.4254994392395" y1="0" x2="104.4254994392395" y2="176.89999961853027" fill="rgb(0, 0, 0)" stroke="rgb(66, 66, 66)" stroke-width="1px" opacity="0.25"></line><line x1="139.23399925231934" y1="0" x2="139.23399925231934" y2="176.89999961853027" fill="rgb(0, 0, 0)" stroke="rgb(66, 66, 66)" stroke-width="1px" opacity="0.25"></line><line x1="174.04249906539917" y1="0" x2="174.04249906539917" y2="176.89999961853027" fill="rgb(0, 0, 0)" stroke="rgb(66, 66, 66)" stroke-width="1px" opacity="0.25"></line><line x1="208.850998878479" y1="0" x2="208.850998878479" y2="176.89999961853027" fill="rgb(0, 0, 0)" stroke="rgb(66, 66, 66)" stroke-width="1px" opacity="0.25"></line><line x1="243.65949869155884" y1="0" x2="243.65949869155884" y2="176.89999961853027" fill="rgb(0, 0, 0)" stroke="rgb(66, 66, 66)" stroke-width="1px" opacity="0.25"></line><line x1="278.4679985046387" y1="0" x2="278.4679985046387" y2="176.89999961853027" fill="rgb(0, 0, 0)" stroke="rgb(66, 66, 66)" stroke-width="1px" opacity="0.25"></line></g><g><line x1="0" y1="171.10537243285947" x2="278.4679985046387" y2="171.10537243285947" fill="rgb(0, 0, 0)" stroke="rgb(66, 66, 66)" stroke-width="1px" opacity="0.25"></line><line x1="0" y1="130.47226510178922" x2="278.4679985046387" y2="130.47226510178922" fill="rgb(0, 0, 0)" stroke="rgb(66, 66, 66)" stroke-width="1px" opacity="0.25"></line><line x1="0" y1="101.64261664769917" x2="278.4679985046387" y2="101.64261664769917" fill="rgb(0, 0, 0)" stroke="rgb(66, 66, 66)" stroke-width="1px" opacity="0.25"></line><line x1="0" y1="79.28060401215639" x2="278.4679985046387" y2="79.28060401215639" fill="rgb(0, 0, 0)" stroke="rgb(66, 66, 66)" stroke-width="1px" opacity="0.25"></line><line x1="0" y1="61.00950931662888" x2="278.4679985046387" y2="61.00950931662888" fill="rgb(0, 0, 0)" stroke="rgb(66, 66, 66)" stroke-width="1px" opacity="0.25"></line><line x1="0" y1="45.56151886486465" x2="278.4679985046387" y2="45.56151886486465" fill="rgb(0, 0, 0)" stroke="rgb(66, 66, 66)" stroke-width="1px" opacity="0.25"></line><line x1="0" y1="32.17986086253891" x2="278.4679985046387" y2="32.17986086253891" fill="rgb(0, 0, 0)" stroke="rgb(66, 66, 66)" stroke-width="1px" opacity="0.25"></line><line x1="0" y1="20.376401985558516" x2="278.4679985046387" y2="20.376401985558516" fill="rgb(0, 0, 0)" stroke="rgb(66, 66, 66)" stroke-width="1px" opacity="0.25"></line><line x1="0" y1="9.817848226996048" x2="278.4679985046387" y2="9.817848226996048" fill="rgb(0, 0, 0)" stroke="rgb(66, 66, 66)" stroke-width="1px" opacity="0.25"></line></g></g></g><g><g><line x1="34.808499813079834" y1="0" x2="34.808499813079834" y2="176.89999961853027" fill="rgb(0, 0, 0)" stroke="rgb(153, 153, 153)" stroke-width="1.5px"></line></g></g><g><g><g><g><g><path style="fill: none;" stroke="rgb(255, 112, 67)" stroke-width="2px" d="M34.808499813079834,165.0299570046632L36.548924803733826,136.38469662858373L38.28934979438782,111.71944015121899L40.02977478504181,90.22881473632376L41.7701997756958,71.34968735042057L43.51062476634979,54.65404562280044L45.251049757003784,39.799215537307965L46.991474747657776,26.503176182570186L48.73189973831177,24.56696520920209L50.47232472896576,28.772281439902688L52.21274971961975,37.14076297397274L53.95317471027374,48.96396984468183L55.693599700927734,64.25938388154503L57.434024691581726,83.69933900123023L59.17444968223572,108.91265168442925L60.91487467288971,143.59658424179867L62.6552996635437,151.62998686647887L64.39572465419769,138.92113415838833L66.13614964485168,117.79652416221592L67.87657463550568,95.73869172875749L69.61699962615967,75.4338105714563L71.35742461681366,57.44251169756632L73.09784960746765,41.62481437294862L74.83827459812164,27.669592567729808L76.57869958877563,25.271231089428014L78.31912457942963,29.1862973802266L80.05954957008362,37.37887711831459L81.79997456073761,49.09731777839223L83.5403995513916,64.33097306480012L85.2808245420456,83.73466836257802L87.02124953269958,108.92643377846734L88.76167452335358,143.59658424179867L90.50209951400757,151.62857150092984L92.24252450466156,138.92159796061168L93.98294949531555,117.79790986138958L95.72337448596954,95.74008256999274L97.46379947662354,75.43489510968566L99.20422446727753,57.44327218639935L100.94464945793152,41.62531956600246L102.68507444858551,27.669917990384896L104.4254994392395,25.271428461236543L106.1659244298935,29.18641371264422L107.90634942054749,37.37894412882586L109.64677441120148,49.09735534041394L111.38719940185547,64.33099324172599L113.12762439250946,83.73467832332497L114.86804938316345,108.92643766498678L116.60847437381744,143.59658424179867L118.34889936447144,151.62857110171015L120.08932435512543,138.92159809144235L121.82974934577942,117.7979102522894L123.57017433643341,95.74008296235262L125.3105993270874,75.43489541564078L127.0510243177414,57.44327240093964L128.79144930839539,41.6253197085222L130.53187429904938,27.669918082189938L132.27229928970337,25.27142851691725L134.01272428035736,29.186413745462815L135.75314927101135,37.37894414773027L137.49357426166534,49.09735535101056L139.23399925231934,64.3309932474181L140.97442424297333,83.73467832613494L142.71484923362732,108.92643766608319L144.4552742242813,143.59658424179867L146.1956992149353,151.62857110159746L147.9361242055893,138.92159809147927L149.6765491962433,117.79791025239977L151.41697418689728,95.74008296246335L153.15739917755127,75.43489541572711L154.89782416820526,57.44327240100017L156.63824915885925,41.625319708562344L158.37867414951324,27.669918082215844L160.11909914016724,25.271428516932904L161.85952413082123,29.186413745472066L163.59994912147522,37.37894414773552L165.3403741121292,49.09735535101351L167.0807991027832,64.33099324741973L168.8212240934372,83.73467832613574L170.5616490840912,108.92643766608354L172.30207407474518,143.59658424179867L174.04249906539917,151.62857110159746L175.78292405605316,138.92159809147938L177.52334904670715,117.79791025239977L179.26377403736115,95.74008296246335L181.00419902801514,75.43489541572711L182.74462401866913,57.44327240100017L184.48504900932312,41.625319708562344L186.2254739999771,27.669918082215844L187.9658989906311,25.271428516932904L189.7063239812851,29.186413745472066L191.4467489719391,37.37894414773552L193.18717396259308,49.09735535101351L194.92759895324707,64.33099324741973L196.66802394390106,83.73467832613574L198.40844893455505,108.92643766608354L200.14887392520905,143.59658424179867L201.88929891586304,151.62857110159746L203.62972390651703,138.92159809147938L205.37014889717102,117.79791025239977L207.110573887825,95.74008296246335L208.850998878479,75.43489541572711L210.591423869133,57.44327240100017L212.331848859787,41.625319708562344L214.07227385044098,27.669918082215844L215.81269884109497,25.271428516932904L217.55312383174896,29.186413745472066L219.29354882240295,37.37894414773552L221.03397381305695,49.09735535101351L222.77439880371094,64.33099324741973L224.51482379436493,83.73467832613574L226.25524878501892,108.92643766608354L227.9956737756729,143.59658424179867L229.7360987663269,151.62857110159746L231.4765237569809,138.92159809147938L233.2169487476349,117.79791025239977L234.95737373828888,95.74008296246335L236.69779872894287,75.43489541572711L238.43822371959686,57.44327240100017L240.17864871025085,41.625319708562344L241.91907370090485,27.669918082215844L243.65949869155884,25.271428516932904L245.39992368221283,29.186413745472066L247.14034867286682,37.37894414773552L248.8807736635208,49.09735535101351L250.6211986541748,64.33099324741973L252.3616236448288,83.73467832613574L254.1020486354828,108.92643766608354L255.84247362613678,143.59658424179867L257.58289861679077,151.62857110159746L259.32332360744476,138.92159809147938L261.06374859809875,117.79791025239977L262.80417358875275,95.74008296246335L264.54459857940674,75.43489541572711L266.28502357006073,57.44327240100017" fill="none"></path></g></g></g></g><g opacity="0.2"><g><g><g><path style="fill: none;" stroke="rgb(255, 112, 67)" stroke-width="2px" d="M34.808499813079834,165.0299570046632L36.548924803733826,122.45089728175407L38.28934979438782,92.6622615878255L40.02977478504181,69.72923086533338L41.7701997756958,51.07925706472151L43.51062476634979,35.36151300600606L45.251049757003784,21.778009989803497L46.991474747657776,9.817850466944066L48.73189973831177,21.778009989803497L50.47232472896576,35.36151300600606L52.21274971961975,51.07925706472151L53.95317471027374,69.72923086533338L55.693599700927734,92.6622615878255L57.434024691581726,122.45089728175407L59.17444968223572,165.0299570046632L60.91487467288971,240.56812345813069L62.6552996635437,165.0299570046632L64.39572465419769,122.45089728175407L66.13614964485168,92.6622615878255L67.87657463550568,69.72923086533338L69.61699962615967,51.07925706472151L71.35742461681366,35.36151300600606L73.09784960746765,21.778009989803497L74.83827459812164,9.817850466944066L76.57869958877563,21.778009989803497L78.31912457942963,35.36151300600606L80.05954957008362,51.07925706472151L81.79997456073761,69.72923086533338L83.5403995513916,92.6622615878255L85.2808245420456,122.45089728175407L87.02124953269958,165.0299570046632L88.76167452335358,240.56812345813069L90.50209951400757,165.0299570046632L92.24252450466156,122.45089728175407L93.98294949531555,92.6622615878255L95.72337448596954,69.72923086533338L97.46379947662354,51.07925706472151L99.20422446727753,35.36151300600606L100.94464945793152,21.778009989803497L102.68507444858551,9.817850466944066L104.4254994392395,21.778009989803497L106.1659244298935,35.36151300600606L107.90634942054749,51.07925706472151L109.64677441120148,69.72923086533338L111.38719940185547,92.6622615878255L113.12762439250946,122.45089728175407L114.86804938316345,165.0299570046632L116.60847437381744,240.56812345813069L118.34889936447144,165.0299570046632L120.08932435512543,122.45089728175407L121.82974934577942,92.6622615878255L123.57017433643341,69.72923086533338L125.3105993270874,51.07925706472151L127.0510243177414,35.36151300600606L128.79144930839539,21.778009989803497L130.53187429904938,9.817850466944066L132.27229928970337,21.778009989803497L134.01272428035736,35.36151300600606L135.75314927101135,51.07925706472151L137.49357426166534,69.72923086533338L139.23399925231934,92.6622615878255L140.97442424297333,122.45089728175407L142.71484923362732,165.0299570046632L144.4552742242813,240.56812345813069L146.1956992149353,165.0299570046632L147.9361242055893,122.45089728175407L149.6765491962433,92.6622615878255L151.41697418689728,69.72923086533338L153.15739917755127,51.07925706472151L154.89782416820526,35.36151300600606L156.63824915885925,21.778009989803497L158.37867414951324,9.817850466944066L160.11909914016724,21.778009989803497L161.85952413082123,35.36151300600606L163.59994912147522,51.07925706472151L165.3403741121292,69.72923086533338L167.0807991027832,92.6622615878255L168.8212240934372,122.45089728175407L170.5616490840912,165.0299570046632L172.30207407474518,240.56812345813069L174.04249906539917,165.0299570046632L175.78292405605316,122.45089728175407L177.52334904670715,92.6622615878255L179.26377403736115,69.72923086533338L181.00419902801514,51.07925706472151L182.74462401866913,35.36151300600606L184.48504900932312,21.778009989803497L186.2254739999771,9.817850466944066L187.9658989906311,21.778009989803497L189.7063239812851,35.36151300600606L191.4467489719391,51.07925706472151L193.18717396259308,69.72923086533338L194.92759895324707,92.6622615878255L196.66802394390106,122.45089728175407L198.40844893455505,165.0299570046632L200.14887392520905,240.56812345813069L201.88929891586304,165.0299570046632L203.62972390651703,122.45089728175407L205.37014889717102,92.6622615878255L207.110573887825,69.72923086533338L208.850998878479,51.07925706472151L210.591423869133,35.36151300600606L212.331848859787,21.778009989803497L214.07227385044098,9.817850466944066L215.81269884109497,21.778009989803497L217.55312383174896,35.36151300600606L219.29354882240295,51.07925706472151L221.03397381305695,69.72923086533338L222.77439880371094,92.6622615878255L224.51482379436493,122.45089728175407L226.25524878501892,165.0299570046632L227.9956737756729,240.56812345813069L229.7360987663269,165.0299570046632L231.4765237569809,122.45089728175407L233.2169487476349,92.6622615878255L234.95737373828888,69.72923086533338L236.69779872894287,51.07925706472151L238.43822371959686,35.36151300600606L240.17864871025085,21.778009989803497L241.91907370090485,9.817850466944066L243.65949869155884,21.778009989803497L245.39992368221283,35.36151300600606L247.14034867286682,51.07925706472151L248.8807736635208,69.72923086533338L250.6211986541748,92.6622615878255L252.3616236448288,122.45089728175407L254.1020486354828,165.0299570046632L255.84247362613678,240.56812345813069L257.58289861679077,165.0299570046632L259.32332360744476,122.45089728175407L261.06374859809875,92.6622615878255L262.80417358875275,69.72923086533338L264.54459857940674,51.07925706472151L266.28502357006073,35.36151300600606" fill="none"></path></g></g></g></g></g></g><g transform="translate(51, 176)" clip-path="url(#clip_1)"><clipPath id="clip_1"><rect width="278" height="23"></rect></clipPath><g><g><line x1="0" y1="0" x2="0" y2="5" style="visibility: inherit;" fill="rgb(0, 0, 0)" stroke="rgb(204, 204, 204)" stroke-width="1px"></line><line x1="34.808499813079834" y1="0" x2="34.808499813079834" y2="5" style="visibility: inherit;" fill="rgb(0, 0, 0)" stroke="rgb(204, 204, 204)" stroke-width="1px"></line><line x1="69.61699962615967" y1="0" x2="69.61699962615967" y2="5" style="visibility: inherit;" fill="rgb(0, 0, 0)" stroke="rgb(204, 204, 204)" stroke-width="1px"></line><line x1="104.4254994392395" y1="0" x2="104.4254994392395" y2="5" style="visibility: inherit;" fill="rgb(0, 0, 0)" stroke="rgb(204, 204, 204)" stroke-width="1px"></line><line x1="139.23399925231934" y1="0" x2="139.23399925231934" y2="5" style="visibility: inherit;" fill="rgb(0, 0, 0)" stroke="rgb(204, 204, 204)" stroke-width="1px"></line><line x1="174.04249906539917" y1="0" x2="174.04249906539917" y2="5" style="visibility: inherit;" fill="rgb(0, 0, 0)" stroke="rgb(204, 204, 204)" stroke-width="1px"></line><line x1="208.850998878479" y1="0" x2="208.850998878479" y2="5" style="visibility: inherit;" fill="rgb(0, 0, 0)" stroke="rgb(204, 204, 204)" stroke-width="1px"></line><line x1="243.65949869155884" y1="0" x2="243.65949869155884" y2="5" style="visibility: inherit;" fill="rgb(0, 0, 0)" stroke="rgb(204, 204, 204)" stroke-width="1px"></line><line x1="278.4679985046387" y1="0" x2="278.4679985046387" y2="5" style="visibility: inherit;" fill="rgb(0, 0, 0)" stroke="rgb(204, 204, 204)" stroke-width="1px"></line></g><g transform="translate(0, 8)"><text style="text-anchor: middle; visibility: hidden; font-family: Roboto, sans-serif; font-size: 12px; font-weight: 200;" x="0" y="0" dx="0em" dy="0.95em" fill="rgb(33, 33, 33)" stroke="none" stroke-width="1px">-20</text><text style="text-anchor: middle; visibility: inherit; font-family: Roboto, sans-serif; font-size: 12px; font-weight: 200;" x="34.808499813079834" y="0" dx="0em" dy="0.95em" fill="rgb(33, 33, 33)" stroke="none" stroke-width="1px">0</text><text style="text-anchor: middle; visibility: inherit; font-family: Roboto, sans-serif; font-size: 12px; font-weight: 200;" x="69.61699962615967" y="0" dx="0em" dy="0.95em" fill="rgb(33, 33, 33)" stroke="none" stroke-width="1px">20</text><text style="text-anchor: middle; visibility: inherit; font-family: Roboto, sans-serif; font-size: 12px; font-weight: 200;" x="104.4254994392395" y="0" dx="0em" dy="0.95em" fill="rgb(33, 33, 33)" stroke="none" stroke-width="1px">40</text><text style="text-anchor: middle; visibility: inherit; font-family: Roboto, sans-serif; font-size: 12px; font-weight: 200;" x="139.23399925231934" y="0" dx="0em" dy="0.95em" fill="rgb(33, 33, 33)" stroke="none" stroke-width="1px">60</text><text style="text-anchor: middle; visibility: inherit; font-family: Roboto, sans-serif; font-size: 12px; font-weight: 200;" x="174.04249906539917" y="0" dx="0em" dy="0.95em" fill="rgb(33, 33, 33)" stroke="none" stroke-width="1px">80</text><text style="text-anchor: middle; visibility: inherit; font-family: Roboto, sans-serif; font-size: 12px; font-weight: 200;" x="208.850998878479" y="0" dx="0em" dy="0.95em" fill="rgb(33, 33, 33)" stroke="none" stroke-width="1px">100</text><text style="text-anchor: middle; visibility: inherit; font-family: Roboto, sans-serif; font-size: 12px; font-weight: 200;" x="243.65949869155884" y="0" dx="0em" dy="0.95em" fill="rgb(33, 33, 33)" stroke="none" stroke-width="1px">120</text><text style="text-anchor: middle; visibility: hidden; font-family: Roboto, sans-serif; font-size: 12px; font-weight: 200;" x="278.4679985046387" y="0" dx="0em" dy="0.95em" fill="rgb(33, 33, 33)" stroke="none" stroke-width="1px">140</text></g><line x1="0" y1="0" x2="278.4679985046387" y2="0" fill="rgb(0, 0, 0)" stroke="rgb(204, 204, 204)" stroke-width="1px"></line></g></g></g></g></svg>